<?xml version="1.0" encoding="utf-8" ?>
<svg baseProfile="tiny" height="512" version="1.2" width="512" xmlns="http://www.w3.org/2000/svg" xmlns:ev="http://www.w3.org/2001/xml-events" xmlns:xlink="http://www.w3.org/1999/xlink"><defs /><polygon fill="none" points="260,489 265,489" stroke="rgb(0%,0%,0%)" /><polygon fill="none" points="317,488 318,488" stroke="rgb(0%,0%,0%)" /><polygon fill="none" points="308,488 313,488" stroke="rgb(0%,0%,0%)" /><polygon fill="none" points="292,488 306,488" stroke="rgb(0%,0%,0%)" /><polygon fill="none" points="288,488 290,488" stroke="rgb(0%,0%,0%)" /><polygon fill="none" points="281,488 286,488" stroke="rgb(0%,0%,0%)" /><polygon fill="none" points="278,488 279,488" stroke="rgb(0%,0%,0%)" /><polygon fill="none" points="274,488 275,488" stroke="rgb(0%,0%,0%)" /><polygon fill="none" points="306,485 305,486 269,486 306,486" stroke="rgb(0%,0%,0%)" /><polygon fill="none" points="239,484 239,490 244,490 244,488 245,487 246,488 245,487 245,484" stroke="rgb(0%,0%,0%)" /><polygon fill="none" points="262,481 261,482 260,482 260,483 259,484 255,484 255,486 259,486 260,487 266,487 267,486 267,482 266,482 265,481" stroke="rgb(0%,0%,0%)" /><polygon fill="none" points="332,473 332,475 331,476 331,477 331,476 332,475 334,477 334,480 333,481 328,481 327,482 326,482 326,485 325,486 309,486 308,485 308,486 326,486 327,487 333,487 333,481 334,480 334,476 333,476 332,475" stroke="rgb(0%,0%,0%)" /><polygon fill="none" points="101,419 107,419" stroke="rgb(0%,0%,0%)" /><polygon fill="none" points="92,419 95,419" stroke="rgb(0%,0%,0%)" /><polygon fill="none" points="191,396" stroke="rgb(0%,0%,0%)" /><polygon fill="none" points="276,395 305,395" stroke="rgb(0%,0%,0%)" /><polygon fill="none" points="352,385" stroke="rgb(0%,0%,0%)" /><polygon fill="none" points="191,378" stroke="rgb(0%,0%,0%)" /><polygon fill="none" points="330,364 328,366 327,365 326,366 325,365 325,366 336,366 335,365 336,364 334,366 330,366 329,365 330,364 332,364" stroke="rgb(0%,0%,0%)" /><polygon fill="none" points="295,364 294,365 293,365 293,368 291,370 290,369 290,370 292,370 292,369 293,368 293,366 294,365 295,366 321,366 311,366 310,365 311,364 320,364 307,364 309,364 310,365 309,366 295,366 294,365 295,364 305,364" stroke="rgb(0%,0%,0%)" /><polygon fill="none" points="269,364 268,365 268,366 288,366 289,367 288,366 288,365 287,364 272,364 287,364 288,365 287,366 269,366 268,365 269,364 270,364" stroke="rgb(0%,0%,0%)" /><polygon fill="none" points="266,353 266,354 265,355 264,354 263,355 263,361 264,360 265,361 265,362 263,364 256,364 255,365 254,364 254,362 255,361 255,360 254,359 255,358 256,358 257,359 257,361 258,362 257,361 257,359 258,358 259,358 260,357 261,358 261,359 261,355 260,354 258,354 259,354 261,356 260,357 259,357 258,356 259,357 257,359 256,358 256,354 256,355 255,356 254,355 255,356 254,357 254,359 255,360 254,361 254,363 253,364 254,364 255,365 254,366 253,366 263,366 263,364 265,362 265,361 264,360 265,359 265,356 266,355" stroke="rgb(0%,0%,0%)" /><polygon fill="none" points="326,352 330,352" stroke="rgb(0%,0%,0%)" /><polygon fill="none" points="312,352" stroke="rgb(0%,0%,0%)" /><polygon fill="none" points="279,352 282,352" stroke="rgb(0%,0%,0%)" /><polygon fill="none" points="290,349 289,350 290,349 291,350 309,350 310,349 311,350 319,350 320,349 324,349 325,350 336,350 325,350 324,349 320,349 319,350 311,350 310,349 309,350 291,350" stroke="rgb(0%,0%,0%)" /><polygon fill="none" points="265,349 264,350 253,350 264,350 265,349 266,350 275,350 276,349 277,350 287,350 277,350 276,349 275,350 266,350" stroke="rgb(0%,0%,0%)" /><polygon fill="none" points="197,343 200,343" stroke="rgb(0%,0%,0%)" /><polygon fill="none" points="498,341 498,342 500,344 500,352 499,353 500,354 499,355 499,356 500,357 500,359 499,360 499,386 498,387 488,387 499,387 499,360 500,359 500,357 499,356 499,355 500,354 499,353 500,352 500,343 501,342 504,342 505,343 505,500 504,501 346,501 345,500 345,399 346,398 346,344 347,343 348,344 348,352 348,344 347,343 346,343 346,398 345,399 345,501 505,501 505,342 499,342" stroke="rgb(0%,0%,0%)" /><polygon fill="none" points="493,340 495,340 496,341 496,378 495,379 495,384 494,385 487,385 486,384 483,384 482,383 481,383 480,384 478,384 477,383 476,383 475,382 476,381 478,381 479,382 478,381 477,381 476,380 475,380 473,378 472,378 463,369 463,368 461,366 461,365 460,364 460,363 459,362 459,361 458,360 458,357 457,356 457,351 456,350 456,343 456,350 455,351 455,355 455,351 456,350 457,351 457,356 456,357 456,359 456,357 457,356 458,357 458,360 457,361 457,362 458,363 458,365 459,366 459,367 460,368 459,369 458,369 455,366 455,365 453,365 454,365 457,368 457,369 460,369 462,371 460,369 460,368 459,367 459,366 458,365 458,363 459,362 460,363 460,364 461,365 461,366 462,367 462,368 464,370 464,371 469,376 470,376 473,379 474,379 476,381 475,382 474,382 473,381 472,381 469,378 468,378 463,373 468,378 468,379 470,379 472,381 473,381 474,382 475,382 476,383 477,383 478,384 477,385 478,384 480,384 481,385 482,385 483,386 486,386 487,385 495,385 495,379 496,378 496,340" stroke="rgb(0%,0%,0%)" /><polygon fill="none" points="489,340" stroke="rgb(0%,0%,0%)" /><polygon fill="none" points="359,340 362,340" stroke="rgb(0%,0%,0%)" /><polygon fill="none" points="465,337" stroke="rgb(0%,0%,0%)" /><polygon fill="none" points="364,333 364,334 363,335 362,334 364,336 364,337 363,338 358,338 357,337 351,337 357,337 358,338 357,339 350,339 349,338 349,335 339,335 339,336 338,337 338,383 337,384 331,384 330,385 326,385 325,384 322,384 321,385 320,384 312,384 311,385 304,385 303,386 302,386 300,384 300,383 301,382 300,383 299,382 299,380 297,380 297,381 298,382 298,383 299,382 300,383 300,384 301,385 300,386 295,386 294,385 293,386 281,386 280,387 279,387 278,386 279,385 268,385 267,384 258,384 257,383 257,380 257,383 256,384 252,384 251,383 251,337 250,336 244,336 243,337 243,341 242,342 205,342 204,341 203,341 202,342 201,341 194,341 193,342 191,342 191,348 191,343 192,342 193,342 194,341 201,341 202,342 203,341 204,341 205,342 229,342 230,343 229,344 202,344 242,344 243,345 243,383 242,384 239,384 238,383 238,377 238,381 237,382 236,381 236,376 237,375 236,374 236,355 237,354 237,352 238,351 238,349 239,348 240,349 240,350 240,349 239,348 238,349 237,348 237,347 236,346 237,347 237,348 236,349 235,349 234,348 235,349 236,349 237,348 238,349 238,351 237,352 237,354 236,355 236,374 237,375 236,376 236,381 235,382 231,382 233,382 234,383 235,382 236,383 237,382 238,383 238,384 237,385 231,385 231,393 230,394 230,399 229,400 195,400 193,398 193,395 192,394 192,393 191,392 191,391 191,392 192,393 192,394 193,395 193,399 192,400 191,399 191,398 191,399 192,400 192,401 193,401 192,400 193,399 194,399 195,400 218,400 219,401 218,402 216,402 232,402 232,395 232,401 231,402 220,402 219,401 220,400 230,400 230,394 231,393 275,393 276,392 278,392 279,391 280,392 304,392 305,393 336,393 337,394 337,484 336,485 336,488 335,489 327,489 336,489 336,485 337,484 337,393 305,393 303,391 303,387 305,385 311,385 312,384 320,384 321,385 322,384 325,384 326,385 330,385 331,384 338,384 338,337 340,335 348,335 349,336 349,338 350,339 349,340 350,341 350,362 351,363 350,364 350,366 351,367 351,374 350,375 351,376 350,377 350,382 349,383 348,382 348,381 348,382 349,383 349,384 350,384 349,383 350,382 350,377 351,376 350,375 351,374 351,367 350,366 350,364 351,363 350,362 350,341 349,340 350,339 357,339 358,338 363,338 364,337 364,336 363,335 364,334" stroke="rgb(0%,0%,0%)" /><polygon fill="none" points="417,326 417,328 416,329 416,333 415,334 396,334 395,335 390,335 390,342 389,343 389,347 390,348 390,352 389,353 388,352 388,349 388,352 387,353 387,355 386,356 386,358 384,360 384,361 383,362 383,363 382,364 380,362 382,360 382,359 383,358 382,357 382,355 383,354 384,355 384,356 384,355 383,354 383,353 383,354 382,355 382,360 381,361 379,359 379,358 378,358 379,359 378,360 378,361 378,360 379,359 380,360 380,363 381,363 382,364 382,365 379,368 379,369 374,374 373,374 370,377 369,377 368,378 367,378 366,379 367,379 368,380 367,381 366,381 365,382 363,382 362,381 363,380 364,380 362,380 361,381 360,381 359,382 355,382 359,382 360,383 359,384 354,384 353,383 352,383 353,383 354,384 357,384 358,385 360,383 363,383 364,382 365,382 366,381 367,381 368,380 369,380 370,379 371,379 372,378 373,378 382,369 382,368 384,366 384,365 385,364 385,363 386,362 386,361 387,360 387,359 388,358 388,356 389,355 389,353 390,352 390,348 391,347 391,344 391,347 390,348 389,347 389,343 390,342 453,342 454,343 454,348 453,349 452,349 454,349 454,342 455,341 455,335 454,335 453,334 425,334 424,333 424,329 422,327 419,327 418,326" stroke="rgb(0%,0%,0%)" /><polygon fill="none" points="448,308 448,310" stroke="rgb(0%,0%,0%)" /><polygon fill="none" points="159,304 160,304" stroke="rgb(0%,0%,0%)" /><polygon fill="none" points="423,301 423,311" stroke="rgb(0%,0%,0%)" /><polygon fill="none" points="463,297 461,299 461,300 462,301 461,302 461,304 460,305 460,310 461,311 461,312 462,313 462,314 463,314 464,315 468,315 469,314 472,314 473,315 472,316 470,316 472,316 473,315 472,314 474,312 474,311 475,310 475,307 474,306 474,303 475,302 474,303 473,302 473,300 471,298 465,298 464,297" stroke="rgb(0%,0%,0%)" /><polygon fill="none" points="448,297 448,305" stroke="rgb(0%,0%,0%)" /><polygon fill="none" points="466,296 471,296" stroke="rgb(0%,0%,0%)" /><polygon fill="none" points="459,293 458,294 458,296 459,297 458,298 458,301 459,302 458,303 458,312 459,313 459,314 460,315 459,314 459,313 458,312 458,304 459,303 459,302 458,301 458,298 459,297 459,296 461,294 464,294 463,293 462,294 461,294 459,296 458,295 458,294" stroke="rgb(0%,0%,0%)" /><polygon fill="none" points="441,270 440,271 435,271 440,271 441,270 442,270" stroke="rgb(0%,0%,0%)" /><polygon fill="none" points="444,269 445,270" stroke="rgb(0%,0%,0%)" /><polygon fill="none" points="496,267 496,269 499,269 499,267" stroke="rgb(0%,0%,0%)" /><polygon fill="none" points="471,266 470,267 468,267 468,269 467,270 466,269 466,267 466,269 465,270 464,270 463,269 464,268 463,269 462,269 461,268 460,269 461,268 462,269 463,269 464,270 467,270 468,269 471,272 471,275 470,276 470,278 470,276 471,275 471,272 470,271 471,270" stroke="rgb(0%,0%,0%)" /><polygon fill="none" points="453,266 453,269 455,269 456,270 456,272 458,274 457,275 458,274 457,273 457,272 458,271 457,270 458,269 458,268 459,267 459,266 458,267 458,269 457,270 456,270 455,269 454,269 453,268" stroke="rgb(0%,0%,0%)" /><polygon fill="none" points="441,266" stroke="rgb(0%,0%,0%)" /><polygon fill="none" points="480,265 481,266 481,267 482,268 483,268 484,269 483,270 481,270 479,268 479,267 479,268 478,269 477,268 475,268 476,269 475,270 474,270 473,269 473,266 473,269 474,270 476,270 477,271 476,272 476,277 474,279 473,278 473,277 474,276 474,275 473,274 474,275 473,276 473,278 474,279 475,278 478,278 478,277 479,276 479,274 478,273 479,272 477,274 476,273 476,272 477,271 477,270 479,268 480,269 480,270 484,270 484,269 483,268 482,268 481,267 481,266" stroke="rgb(0%,0%,0%)" /><polygon fill="none" points="459,264 460,264" stroke="rgb(0%,0%,0%)" /><polygon fill="none" points="165,255 164,256 164,270 165,271 164,272 165,273 165,302 164,303 163,303 165,303 166,304 167,304 166,304 165,303 165,284 166,283 165,282 165,273 164,272 165,271 164,270 164,256 165,255 168,255 169,256 169,417 167,419 115,419 167,419 168,418 169,418 169,255" stroke="rgb(0%,0%,0%)" /><polygon fill="none" points="392,253" stroke="rgb(0%,0%,0%)" /><polygon fill="none" points="415,247 414,248 399,248 399,250 398,251 398,268 399,269 399,270 397,272 396,271 396,270 395,269 395,265 396,264 396,263 395,262 395,259 396,258 395,257 395,252 394,252 393,251 390,251 390,253 389,254 389,279 392,282 391,283 389,283 388,284 386,282 386,281 387,280 386,281 386,282 385,283 387,283 388,284 387,285 383,285 382,284 380,284 380,288 384,288 385,289 389,289 385,289 384,288 381,288 380,287 380,285 381,284 382,285 382,286 383,285 387,285 388,286 387,287 386,287 388,287 388,284 389,283 391,285 390,286 391,287 391,289 392,290 415,290 417,292 417,302 419,302 419,301 420,300 421,301 421,320 420,321 421,320 422,321 422,322 421,323 421,325 421,323 422,322 424,324 423,325 424,324 425,325 425,326 425,325 424,324 424,323 421,320 421,300 422,299 424,299 425,300 425,301 425,292 427,290 445,290 446,291 446,316 447,317 447,318 459,318 460,319 476,319 476,318 477,317 480,317 481,318 481,319 482,318 485,318 486,317 487,317 488,318 489,318 490,317 491,318 493,318 494,317 495,317 496,318 497,318 498,317 499,317 500,318 501,317 503,317 502,316 502,315 503,314 502,313 502,316 500,318 499,317 498,317 496,315 495,315 496,315 498,317 497,318 496,318 495,317 494,317 493,318 491,318 490,317 489,318 488,318 487,317 486,317 485,318 481,318 480,317 476,317 476,318 475,319 461,319 460,318 460,317 459,318 451,318 450,317 451,316 458,316 449,316 448,315 448,316 447,317 446,316 446,291 447,290 449,290 450,291 476,291 477,292 477,296 476,297 475,296 475,293 474,294 466,294 474,294 475,295 475,299 477,301 477,303 476,304 476,305 477,304 478,305 478,308 477,309 478,310 477,311 477,314 476,315 477,315 477,312 478,311 478,310 477,309 478,308 478,305 477,304 477,292 478,291 504,291 505,292 505,332 503,334 498,334 498,335 497,336 497,337 496,338 478,338 477,339 460,339 459,338 458,338 457,339 458,338 459,338 460,339 477,339 478,338 497,338 497,336 499,334 504,334 505,333 505,291 450,291 449,290 447,290 446,291 445,290 426,290 425,291 425,298 424,299 422,299 421,300 419,300 419,301 418,302 417,301 417,291 416,291 415,290 393,290 391,288 391,284 392,283 392,282 390,280 390,279 391,278 392,279 394,279 392,279 391,278 391,255 391,278 390,279 389,278 389,254 390,253 390,252 391,251 393,251 395,253 395,257 396,258 395,259 395,261 394,262 395,262 396,263 396,264 395,265 394,264 395,265 395,269 396,270 396,280 394,282 395,282 395,281 396,280 396,275 397,274 398,275 398,281 397,282 417,282 417,281 418,280 418,259 417,258 417,252 416,252 415,251 414,252 410,252 409,251 410,250 409,251 400,251 399,250 399,249 400,248 413,248 414,249 413,250 415,248" stroke="rgb(0%,0%,0%)" /><polygon fill="none" points="403,243 404,243" stroke="rgb(0%,0%,0%)" /><polygon fill="none" points="407,241 407,242 406,243 407,242" stroke="rgb(0%,0%,0%)" /><polygon fill="none" points="25,240 28,240" stroke="rgb(0%,0%,0%)" /><polygon fill="none" points="403,239 403,240" stroke="rgb(0%,0%,0%)" /><polygon fill="none" points="407,237 408,237" stroke="rgb(0%,0%,0%)" /><polygon fill="none" points="399,237" stroke="rgb(0%,0%,0%)" /><polygon fill="none" points="428,236 428,239" stroke="rgb(0%,0%,0%)" /><polygon fill="none" points="402,236 402,237 400,239 399,239 400,239 401,240 401,243 401,240 400,239 402,237" stroke="rgb(0%,0%,0%)" /><polygon fill="none" points="410,234" stroke="rgb(0%,0%,0%)" /><polygon fill="none" points="397,234 398,235" stroke="rgb(0%,0%,0%)" /><polygon fill="none" points="95,234" stroke="rgb(0%,0%,0%)" /><polygon fill="none" points="56,234" stroke="rgb(0%,0%,0%)" /><polygon fill="none" points="42,234 43,234" stroke="rgb(0%,0%,0%)" /><polygon fill="none" points="19,234 19,235" stroke="rgb(0%,0%,0%)" /><polygon fill="none" points="399,233 402,233" stroke="rgb(0%,0%,0%)" /><polygon fill="none" points="39,233 39,234" stroke="rgb(0%,0%,0%)" /><polygon fill="none" points="415,232 414,233 412,233 414,233" stroke="rgb(0%,0%,0%)" /><polygon fill="none" points="404,231 405,231 406,232 405,233 405,234 406,235 404,237 405,238 405,239 410,239 411,240 411,242 410,243 409,242 409,241 409,242 410,243 410,244 409,245 398,245 398,246 399,245 403,245 404,246 405,245 409,245 410,244 411,245 412,244 413,244 414,245 415,245 414,245 413,244 414,243 415,243 414,243 413,242 414,241 414,239 415,238 414,239 413,239 412,238 413,237 413,236 414,235 415,235 413,235 413,236 412,237 412,239 411,240 410,239 410,237 410,238 409,239 406,239 405,238 405,236 407,234 408,235 408,234 406,234 405,233 407,231 408,232 407,231" stroke="rgb(0%,0%,0%)" /><polygon fill="none" points="397,230 398,231" stroke="rgb(0%,0%,0%)" /><polygon fill="none" points="433,226 431,228" stroke="rgb(0%,0%,0%)" /><polygon fill="none" points="397,226 398,227 397,228 398,228 398,227" stroke="rgb(0%,0%,0%)" /><polygon fill="none" points="436,225 435,226 435,227 432,230 432,231 431,232 430,231 430,230 430,231 431,232 431,234 430,235 429,234 429,233 429,234 430,235 430,243 429,244 429,246 430,247 430,254 429,255 429,258 428,259 429,258 430,259 430,260 431,261 431,262 433,264 433,265 433,264 431,262 431,261 432,260 435,263 435,264 436,264 437,265 436,266 435,266 436,267 438,267 437,267 436,266 437,265 439,265 440,264 441,264 443,262 443,261 444,260 445,261 445,262 445,261 444,260 444,258 445,257 446,258 446,259 446,258 447,257 447,254 446,253 446,247 447,246 448,247 448,252 448,241 448,245 447,246 446,245 446,239 445,238 445,234 446,233 447,234 447,237 447,234 446,233 446,231 445,230 445,229 445,230 444,231 443,230 443,229 442,228 443,227 442,227 440,225" stroke="rgb(0%,0%,0%)" /><polygon fill="none" points="429,222 428,223" stroke="rgb(0%,0%,0%)" /><polygon fill="none" points="19,221 19,231" stroke="rgb(0%,0%,0%)" /><polygon fill="none" points="17,221 17,236" stroke="rgb(0%,0%,0%)" /><polygon fill="none" points="19,219 26,219" stroke="rgb(0%,0%,0%)" /><polygon fill="none" points="17,217 33,217 34,218 39,218 40,219 40,223 40,218 34,218 33,217" stroke="rgb(0%,0%,0%)" /><polygon fill="none" points="33,212 34,213 34,214 33,215 34,214 34,213 35,212 37,214 38,213 37,214 35,212 34,213" stroke="rgb(0%,0%,0%)" /><polygon fill="none" points="198,211 197,212 197,213 197,212 198,211 199,212 199,214 198,215 199,216 199,225 198,226 198,236 199,237 199,241 198,242 198,253 197,254 192,254 191,253 191,252 190,251 191,250 192,250 191,249 191,248 192,247 193,247 194,248 195,247 194,246 195,245 194,246 193,246 191,248 191,249 190,250 189,249 189,248 189,249 188,250 187,249 187,247 186,246 186,247 185,248 184,247 184,246 183,245 182,246 180,244 180,240 181,239 182,240 182,241 183,242 184,242 185,243 186,243 186,239 187,238 188,238 189,239 188,240 190,240 191,241 191,242 190,243 189,243 188,242 189,243 189,244 188,245 189,246 190,246 190,245 189,244 190,243 191,243 191,242 192,241 193,241 194,242 195,241 195,239 194,239 192,241 191,241 190,240 190,239 191,238 191,235 190,235 189,234 187,234 187,236 188,237 186,239 186,240 184,242 183,242 182,241 182,240 181,239 180,239 180,245 181,245 182,246 180,248 180,251 181,251 182,252 183,252 182,251 183,250 184,250 185,251 185,252 185,251 186,250 187,251 187,252 187,251 189,249 190,250 190,251 191,252 191,253 190,254 179,254 197,254 198,253 198,242 199,241 200,242 200,245 200,242 199,241 199,237 200,236 199,237 198,236 198,226 199,225 200,226 200,228 200,226 199,225 199,216 198,215 199,214 199,212" stroke="rgb(0%,0%,0%)" /><polygon fill="none" points="499,210 499,218 500,219 501,219 502,220 503,219 504,219 504,210" stroke="rgb(0%,0%,0%)" /><polygon fill="none" points="37,210 54,210 55,211 56,211 57,210 58,211 78,211 79,210 80,211 82,211 83,210 84,210 85,211 89,211 90,210 91,210 92,211 93,210 97,210 98,211 97,212 98,213 98,215 97,216 96,216 96,229 97,230 97,231 96,232 95,232 94,231 94,229 92,227 94,225 93,224 93,223 92,222 93,221 93,218 92,217 94,215 94,213 92,213 93,213 94,214 94,215 92,217 93,218 93,221 92,222 93,223 93,225 92,226 92,227 90,229 90,230 92,228 93,228 94,229 94,231 93,232 63,232 62,233 61,232 41,232 40,231 40,226 37,223 37,221 38,220 37,221 36,220 37,221 37,223 36,224 34,222 32,222 31,221 28,221 27,222 25,222 23,224 23,227 24,228 23,229 24,230 23,231 24,232 24,236 25,237 24,238 33,238 34,239 33,240 30,240 33,240 34,239 35,239 34,239 33,238 34,237 35,237 36,236 36,235 37,234 37,227 36,226 36,224 37,223 38,224 38,225 40,227 40,231 41,232 52,232 53,233 54,232 60,232 61,233 60,234 61,234 62,233 63,233 64,232 69,232 70,233 69,234 66,234 74,234 73,234 72,233 73,232 81,232 82,233 81,234 77,234 76,235 77,236 76,237 75,237 76,237 77,236 78,236 79,237 82,237 80,237 79,236 77,236 76,235 77,234 82,234 82,233 83,232 84,233 84,234 92,234 85,234 84,233 85,232 97,232 97,230 96,229 96,217 98,215 99,216 99,219 98,220 99,220 100,221 98,223 99,224 98,225 99,225 99,222 100,221 101,222 103,222 101,222 100,221 101,220 102,220 102,212 101,211 100,211 99,210 98,211 97,210 93,210 92,211 91,210 90,210 89,211 85,211 84,210 82,210 81,211 80,211 79,210 78,211 66,211 65,210 64,211 58,211 57,210 56,211 55,211 54,210" stroke="rgb(0%,0%,0%)" /><polygon fill="none" points="446,208 450,208" stroke="rgb(0%,0%,0%)" /><polygon fill="none" points="73,208 102,208" stroke="rgb(0%,0%,0%)" /><polygon fill="none" points="37,205 38,206 38,207 37,208 38,207 38,205" stroke="rgb(0%,0%,0%)" /><polygon fill="none" points="502,200 502,204" stroke="rgb(0%,0%,0%)" /><polygon fill="none" points="502,195 502,198" stroke="rgb(0%,0%,0%)" /><polygon fill="none" points="20,193 20,202 21,203 33,203 34,204 34,209 33,210 31,210 30,211 15,211 15,238 17,238 19,240 19,242 18,243 17,243 18,243 19,242 19,240 17,238 16,238 15,237 15,220 16,219 17,219 16,219 15,218 15,212 16,211 29,211 30,212 30,211 31,210 34,210 34,204 35,203 39,203 40,204 40,207 70,207 71,208 70,207 41,207 40,206 40,203 21,203 20,202 20,194 21,193 25,193" stroke="rgb(0%,0%,0%)" /><polygon fill="none" points="483,180 484,180 485,181 484,182 482,182 481,181 480,181 478,183 479,183 479,182 480,181 481,181 482,182 482,184 486,184 487,185 483,189 483,192 482,193 483,194 483,197 486,200 486,201 487,200 488,200 489,201 494,201 489,201 488,200 489,199 492,199 490,199 489,198 488,198 486,196 487,195 488,195 489,196 490,196 491,195 493,195 494,196 493,197 492,197 493,197 494,196 495,196 496,195 495,196 494,195 494,193 496,191 496,189 496,190 494,192 492,190 492,189 493,188 494,189 494,188 492,188 492,190 491,191 489,191 490,191 491,192 491,195 490,196 489,196 488,195 487,195 486,196 485,195 485,194 483,192 483,189 487,185 488,185 489,184 492,184 493,185 492,186 490,186 489,187 488,187 485,190 485,191 486,190 486,189 487,188 488,188 490,186 492,186 493,185 497,185 501,189 501,192 500,193 500,194 499,195 499,196 497,198 496,198 495,199 496,198 497,198 498,199 496,201 498,199 499,199 498,199 497,198 498,197 499,197 499,196 500,195 500,193 501,192 501,189 500,188 500,187 499,186 498,186 497,185 498,184 499,184 498,184 497,185 493,185 492,184 493,183 496,183 493,183 492,184 489,184 488,185 487,185 486,184 486,182 484,180" stroke="rgb(0%,0%,0%)" /><polygon fill="none" points="339,179 338,180 330,180 329,181 328,181 329,182 329,183 328,184 328,185 329,186 328,187 328,256 329,256 330,257 329,258 329,288 330,289 366,289 366,287 367,286 366,285 367,284 373,284 374,285 375,284 376,284 377,285 377,287 376,288 374,288 372,286 370,286 372,286 373,287 373,288 377,288 377,285 378,284 367,284 366,283 366,281 359,281 358,280 358,258 359,257 361,257 361,253 362,252 362,242 361,241 361,240 362,239 362,235 361,234 362,233 362,201 363,200 363,179" stroke="rgb(0%,0%,0%)" /><polygon fill="none" points="326,179 326,182 325,183 325,186 326,187 326,257 327,258 326,259 326,260 327,260 326,259 327,258 326,257 326,187 325,186 325,183 326,182 326,180 327,179 328,179" stroke="rgb(0%,0%,0%)" /><polygon fill="none" points="330,178 336,178" stroke="rgb(0%,0%,0%)" /><polygon fill="none" points="26,170 28,170 29,171 28,172 26,172 25,173 23,173 21,175 20,175 20,191 26,191 27,192 30,192 31,191 33,191 34,190 36,190 37,189 38,189 40,187 41,187 40,186 40,185 41,184 41,178 36,173 35,173 34,172 33,172 32,171 29,171 28,170" stroke="rgb(0%,0%,0%)" /><polygon fill="none" points="71,160 71,161 74,161 72,161" stroke="rgb(0%,0%,0%)" /><polygon fill="none" points="21,155 27,155" stroke="rgb(0%,0%,0%)" /><polygon fill="none" points="80,151 82,151" stroke="rgb(0%,0%,0%)" /><polygon fill="none" points="199,150 199,184 198,185 199,186 199,190 198,191 199,192 199,203 198,204 198,205 199,206 199,207 197,209 199,207 199,205 198,204 199,203 199,192 198,191 199,190 199,186 198,185 199,184 199,151 200,150 201,150 202,151 202,176 201,177 202,178 202,202 202,151 201,150" stroke="rgb(0%,0%,0%)" /><polygon fill="none" points="196,150 197,151 197,172 197,150" stroke="rgb(0%,0%,0%)" /><polygon fill="none" points="502,147 502,151 501,152 501,154 501,152 502,151" stroke="rgb(0%,0%,0%)" /><polygon fill="none" points="470,147 470,154 469,155 470,155" stroke="rgb(0%,0%,0%)" /><polygon fill="none" points="397,147 397,220 401,220 402,221 402,222 400,224 399,224 398,223 397,223 398,224 400,224 401,225 401,226 400,227 400,229 400,228 401,227 402,228 402,229 403,229 401,227 401,225 400,224 401,223 403,223 404,222 405,223 405,224 406,225 405,224 405,223 406,222 408,224 408,226 407,227 406,227 406,229 408,229 410,231 413,231 413,230 412,229 413,228 414,228 415,227 414,228 412,228 412,229 410,231 408,229 408,228 407,227 408,226 409,226 410,227 410,226 411,225 412,225 413,226 412,225 413,224 413,222 413,224 412,225 411,225 409,223 410,222 409,223 408,222 407,223 406,222 405,223 404,222 404,221 405,220 414,220 415,221 415,225 415,220 398,220 397,219" stroke="rgb(0%,0%,0%)" /><polygon fill="none" points="394,147 394,178 393,179 393,219 391,221 391,248 392,249 393,249 394,248 395,248 396,249 396,250 396,249 397,248 396,248 395,247 396,246 395,245 395,242 396,241 398,241 399,242 398,243 397,243 398,243 399,242 399,241 396,241 395,240 395,238 396,237 397,238 397,239 397,238 395,236 395,223 394,222 395,223 395,245 396,246 393,249 391,247 391,228 392,227 393,228 393,246 393,224 393,226 392,227 391,226 391,222 393,220 393,180 394,179" stroke="rgb(0%,0%,0%)" /><polygon fill="none" points="29,147 33,151 34,151 35,152 34,153 32,153 30,151 30,152 31,152 32,153 33,153 34,154 36,154 37,153 48,153 49,154 50,153 52,153 53,154 54,153 55,153 56,154 63,154 64,153 65,153 66,154 68,154 69,153 70,153 71,154 77,154 78,153 82,153 78,153 77,152 72,152 77,152 78,153 77,154 71,154 70,153 69,153 68,154 66,154 65,153 64,153 63,154 56,154 55,153 54,153 53,154 52,153 51,153 50,152 48,152 47,153 37,153 36,152 35,152 34,151 33,151 31,149 32,148 32,147 31,147 30,148" stroke="rgb(0%,0%,0%)" /><polygon fill="none" points="25,142 25,145 24,146 24,149 24,146 25,145" stroke="rgb(0%,0%,0%)" /><polygon fill="none" points="30,116 30,117 27,120 27,121 26,122 25,121 25,120 25,121 24,122 23,121 22,121 23,121 24,122 24,124 23,125 21,123 21,124 22,124 23,125 23,128 24,129 24,138 23,139 23,141 22,142 20,142 21,143 22,142 23,143 23,144 23,139 24,138 24,129 25,128 25,125 24,124 24,122 25,121 26,122 26,123 28,125 28,127 27,128 27,141 28,142 28,145 27,146 27,147 26,148 26,149 27,150 27,151 26,152 26,153 26,152 27,151 28,152 28,153 29,154 29,155 30,156 37,156 38,155 47,155 38,155 37,156 30,156 29,155 29,154 28,153 28,152 27,151 27,150 28,149 27,150 26,149 26,148 27,147 27,146 28,145 28,142 27,141 27,135 28,134 29,135 29,133 28,134 27,133 27,128 28,127 28,126 29,125 29,123 33,119 34,119 35,118 38,118 39,117 45,117 46,118 55,118 58,121 57,122 58,121 58,120 57,120 56,119 57,118 66,118 46,118 45,117 39,117 38,118 35,118 34,119 33,119 32,120 31,120 29,122 28,122 27,121 28,120 28,119 30,117" stroke="rgb(0%,0%,0%)" /><polygon fill="none" points="16,114 14,116 14,149 15,150 15,155 19,155 16,155 15,154 15,150 14,149 14,116 16,114 17,115 19,115 20,114 21,115 21,116 19,118 20,119 23,119 24,118 26,118 25,118 24,117 23,117 24,118 23,119 20,119 19,118 21,116 21,115 22,114 23,115 24,114 96,114 97,115 100,115 101,114 103,114 105,116 105,130 104,131 105,132 105,135 104,136 104,153 104,136 105,135 105,132 104,131 105,130 105,115 104,115 103,114 101,114 100,115 97,115 96,114 24,114 23,115 22,114 21,115 20,114 19,115 17,115" stroke="rgb(0%,0%,0%)" /><polygon fill="none" points="197,105 197,110" stroke="rgb(0%,0%,0%)" /><polygon fill="none" points="348,102" stroke="rgb(0%,0%,0%)" /><polygon fill="none" points="196,93 196,95" stroke="rgb(0%,0%,0%)" /><polygon fill="none" points="198,91 198,92" stroke="rgb(0%,0%,0%)" /><polygon fill="none" points="345,10 345,136 348,136 348,104 348,135 347,136 346,136 345,135 345,11 346,10 504,10 505,11 505,134 503,136 468,136 468,137 467,138 467,144 468,145 467,146 467,152 467,149 468,148 467,147 467,146 468,145 471,145 472,146 472,155 472,145 473,144 496,144 497,145 497,147 498,148 497,147 497,146 498,145 504,145 505,146 505,158 504,159 504,163 505,164 505,167 504,168 504,176 503,177 502,177 501,176 501,173 501,176 500,177 490,177 489,176 489,175 488,174 488,173 489,172 490,172 489,172 488,173 487,172 487,171 484,168 483,168 484,169 485,169 487,171 487,172 488,173 488,174 487,175 485,173 485,172 484,171 483,171 480,168 481,167 480,166 480,165 486,159 487,160 486,159 490,155 490,154 492,152 495,152 497,154 498,154 501,157 501,163 500,164 501,165 500,166 500,168 498,170 498,171 497,172 497,174 499,174 499,173 498,174 497,173 497,172 499,170 500,171 499,170 500,169 500,166 501,165 500,164 501,163 501,157 498,154 499,153 499,152 498,152 497,151 496,151 495,152 492,152 491,151 492,150 494,150 492,150 491,149 489,149 488,148 488,147 488,148 487,149 488,148 489,149 489,152 486,155 486,156 477,165 476,164 476,163 476,164 477,165 477,166 478,167 478,168 480,168 484,172 483,173 484,172 487,175 487,178 488,179 500,179 502,181 501,182 501,184 502,185 502,186 502,185 501,184 501,182 503,180 504,180 505,181 505,198 504,199 504,201 505,202 505,204 503,206 497,206 495,208 482,208 481,207 482,206 494,206 493,206 492,205 493,204 494,204 493,204 491,206 482,206 481,207 472,207 471,208 460,208 459,207 461,205 462,205 463,206 464,205 465,206 465,205 466,204 467,205 470,205 470,204 471,203 471,202 471,203 469,205 467,205 466,204 466,203 467,202 468,203 468,202 469,201 469,196 468,195 469,194 470,194 466,194 465,193 465,191 464,191 465,192 464,193 464,194 463,195 462,194 461,195 460,194 460,193 459,192 460,191 462,191 462,189 460,189 459,190 460,191 459,192 457,192 456,191 457,190 457,189 455,189 454,188 455,189 455,190 457,192 457,195 456,196 455,195 455,193 452,193 451,192 451,189 450,188 451,189 451,190 450,191 451,192 451,194 450,195 448,195 447,194 448,195 447,196 446,196 445,195 445,192 445,195 446,196 447,196 448,195 449,196 449,198 449,196 450,195 451,196 451,194 452,193 453,194 453,195 455,195 456,196 457,195 457,193 458,192 460,194 459,195 460,194 461,195 462,194 463,195 463,200 463,195 465,193 466,194 467,194 469,196 468,197 469,198 467,200 468,199 469,200 469,201 468,202 467,202 466,203 463,203 465,203 466,204 465,205 464,205 463,206 462,205 460,205 458,203 457,204 457,205 456,206 455,205 455,204 454,203 456,201 457,201 457,199 456,198 456,199 457,200 454,203 453,202 452,203 450,201 451,202 448,205 447,204 447,202 448,201 447,202 447,203 444,206 441,206 440,205 440,204 441,203 442,203 443,204 443,203 441,203 440,204 439,203 438,204 439,204 440,205 439,206 435,206 440,206 441,207 442,206 445,206 445,205 446,204 447,204 448,205 448,206 451,206 452,205 452,204 453,203 455,205 455,206 456,206 457,207 457,204 458,203 460,205 460,206 459,207 459,208 471,208 472,209 471,210 454,210 453,209 452,209 451,210 445,210 444,209 435,209 444,209 445,210 444,211 435,211 444,211 445,210 451,210 452,211 453,211 454,210 471,210 472,209 480,209 472,209 471,208 472,207 481,207 482,208 494,208 495,209 496,209 497,210 496,211 491,211 490,212 490,217 489,218 490,218 491,219 491,220 492,220 493,221 494,220 497,220 498,221 498,238 497,239 498,240 498,245 497,246 497,247 498,248 497,249 497,251 498,252 498,260 496,262 492,262 491,263 490,262 484,262 483,261 485,259 483,261 481,261 480,262 459,262 458,261 454,261 453,260 453,259 454,258 454,237 453,236 453,232 452,231 452,229 451,228 451,226 450,225 450,224 449,223 449,222 444,217 442,217 441,216 439,216 438,215 433,215 432,216 428,216 427,217 428,217 429,216 432,216 433,217 432,216 433,215 438,215 439,216 440,216 441,217 443,217 449,223 449,224 450,225 450,226 451,227 451,228 452,229 452,231 453,232 453,236 454,237 454,246 453,247 454,248 454,258 453,259 453,261 452,262 451,261 452,262 447,267 449,265 450,265 451,264 451,263 453,261 458,261 459,262 467,262 468,263 468,264 468,263 469,262 470,263 470,264 472,264 471,264 470,263 471,262 473,262 474,263 475,262 477,262 478,263 477,264 478,265 477,266 478,265 477,264 479,262 480,262 481,261 482,261 483,262 484,262 486,264 486,268 486,266 487,265 488,266 488,269 487,270 486,270 487,270 488,269 488,265 487,265 485,263 486,262 489,262 490,263 490,264 491,263 492,264 492,265 493,266 492,267 491,267 490,266 491,267 490,268 492,270 493,270 493,269 491,269 490,268 491,267 493,267 493,266 492,265 492,263 493,262 494,263 494,264 495,265 496,265 495,265 494,264 494,263 495,262 496,262 497,261 498,262 498,257 499,256 501,256 502,257 502,262 501,263 502,263 502,258 503,257 502,256 502,255 501,256 500,255 500,253 500,255 499,256 498,255 498,252 497,251 497,249 498,248 498,237 499,236 500,237 501,237 502,238 502,237 500,237 499,236 500,235 499,236 498,235 498,225 499,224 498,223 498,222 499,221 500,221 498,221 497,220 494,220 493,221 490,218 490,212 491,211 497,211 497,209 496,209 495,208 497,206 503,206 504,207 504,205 505,204 505,202 504,201 504,199 505,198 505,180 502,180 500,178 501,177 504,177 504,168 505,167 505,164 504,163 504,159 505,158 505,145 497,145 496,144 497,143 497,141 498,140 499,141 499,142 499,141 500,140 499,141 498,140 497,141 497,143 496,144 473,144 472,145 469,145 467,143 467,138 469,136 504,136 504,135 505,134 505,10" stroke="rgb(0%,0%,0%)" /><polygon fill="none" points="15,9 15,40 14,41 15,42 15,106 105,106 105,10 34,10 33,9 19,9 18,10 17,9" stroke="rgb(0%,0%,0%)" /><polygon fill="none" points="511,2 510,3 499,3 498,4 497,3 497,4 498,4 499,5 499,4 500,3 501,4 501,5 501,4 502,3 509,3 510,4 510,10 511,11 511,12 510,13 510,14 511,15 511,16 510,17 510,18 511,19 510,20 511,21 510,22 510,42 511,43 510,44 510,51 511,52 510,53 510,66 511,67 510,68 510,73 511,74 511,75 510,76 510,84 511,85 510,86 510,87 511,88 511,89 510,90 510,95 511,96 510,97 510,283 511,284 511,285 510,286 510,294 509,295 508,294 508,292 508,295 509,295 510,296 510,319 511,320 510,321 510,439 511,440 510,441 510,442 511,443 511,444 510,445 510,504 511,505 510,506 511,507 510,508 498,508 510,508 511,509 509,511 337,511 511,511 510,510 511,509 511,507 510,506 511,505 510,504 510,445 511,444 511,443 510,442 510,441 511,440 510,439 510,321 511,320 510,319 510,286 511,285 511,284 510,283 510,97 511,96 510,95 510,90 511,89 511,88 510,87 510,86 511,85 510,84 510,76 511,75 511,74 510,73 510,68 511,67 510,66 510,53 511,52 510,51 510,44 511,43 510,42 510,22 511,21 510,20 511,19 510,18 510,17 511,16 511,15 510,14 510,13 511,12 511,11 510,10 510,4 511,3" stroke="rgb(0%,0%,0%)" /><polygon fill="none" points="10,0 178,0 179,1 179,8 178,9 178,80 201,80 203,82 203,87 202,88 199,88 198,89 189,89 188,88 187,89 186,88 185,89 184,88 183,89 177,89 177,341 186,341 187,342 187,348 186,349 177,349 177,384 178,384 179,385 180,384 186,384 187,385 192,385 193,386 193,391 193,363 192,362 193,361 193,345 194,344 195,344 193,344 193,361 192,362 193,363 193,384 192,385 191,384 190,385 187,385 186,384 181,384 180,383 180,378 181,377 182,378 183,377 182,378 180,376 180,375 180,384 179,385 177,383 177,350 178,349 186,349 187,348 187,341 178,341 177,340 177,257 178,256 192,256 193,257 192,258 191,258 189,260 187,258 185,258 187,258 189,260 189,261 188,262 187,261 184,264 182,262 183,261 183,260 182,259 182,258 182,260 183,261 182,262 183,263 183,264 181,266 181,267 180,268 181,268 182,269 182,268 183,267 182,268 181,267 181,266 183,264 184,264 185,263 186,264 187,263 188,264 188,262 189,261 189,260 191,258 192,258 194,256 196,256 197,257 197,258 196,259 195,258 194,259 194,260 195,260 196,261 195,262 195,264 195,262 196,261 197,261 196,261 195,260 197,258 198,258 199,259 199,260 199,258 198,258 197,257 198,256 203,256 203,255 204,254 204,149 203,148 198,148 197,147 197,129 196,128 196,126 197,125 197,115 196,114 197,113 197,112 197,113 196,114 197,115 197,125 196,126 196,128 197,129 197,148 202,148 204,150 204,254 203,255 202,254 202,238 202,253 201,254 200,253 200,252 200,253 201,254 202,254 203,255 202,256 178,256 177,255 177,150 178,149 183,149 184,148 188,148 189,149 192,149 193,148 194,148 195,147 195,146 194,145 194,136 195,135 194,134 194,107 195,106 194,105 195,104 194,103 195,102 194,101 194,99 195,98 195,97 194,96 194,90 195,89 198,89 199,88 203,88 204,87 224,87 225,88 225,93 227,93 227,91 228,90 227,89 227,88 228,87 250,87 251,88 255,88 256,89 279,89 280,88 282,88 283,87 328,87 329,88 335,88 337,90 337,114 336,115 336,133 337,134 337,135 336,136 337,137 336,138 337,139 336,140 337,141 337,144 349,144 350,143 368,143 369,144 369,145 368,146 367,146 367,148 367,147 368,146 369,147 369,148 369,147 370,146 371,147 371,148 371,147 370,146 371,145 370,146 369,145 369,144 370,143 384,143 385,144 386,144 387,145 416,145 418,147 417,148 417,150 418,151 418,207 417,208 418,209 417,210 417,211 418,212 418,215 417,216 418,217 418,249 417,250 418,249 418,217 417,216 418,215 418,212 417,211 417,210 418,209 417,208 418,207 418,151 417,150 417,148 419,146 421,146 422,147 422,148 421,149 420,149 421,150 421,154 422,154 421,153 421,149 422,148 422,147 423,146 421,144 422,145 421,146 419,146 418,147 417,146 417,145 387,145 385,143 385,142 384,141 384,139 385,138 385,137 386,136 429,136 430,137 430,138 431,139 431,140 430,141 430,143 429,144 427,144 426,145 426,206 427,206 428,207 432,207 433,208 433,210 431,212 425,212 425,219 426,220 426,221 425,222 425,229 426,230 426,232 425,233 425,260 426,261 426,262 425,263 425,279 427,281 505,281 505,222 504,222 505,223 505,280 504,281 427,281 425,279 425,263 426,262 428,264 428,265 430,267 429,268 428,268 429,268 430,269 429,270 428,270 429,270 430,269 431,270 432,270 431,270 430,269 431,268 433,268 434,269 439,269 440,268 442,268 443,267 444,267 447,264 447,263 448,262 448,261 449,260 449,258 450,257 450,252 451,251 451,244 450,243 450,236 449,235 449,232 448,231 448,229 447,228 447,226 445,224 445,223 441,219 435,219 433,221 432,221 431,222 431,223 429,225 429,226 428,227 428,228 428,227 430,225 430,224 434,220 435,220 436,219 440,219 442,221 440,223 436,223 440,223 441,222 442,223 443,222 445,224 445,225 447,227 447,228 448,229 448,231 449,232 449,235 450,236 450,243 451,244 451,251 450,252 450,257 449,258 449,259 448,260 448,261 447,262 447,263 442,268 440,268 439,269 434,269 433,268 432,268 427,263 427,262 425,260 425,233 426,232 426,230 425,229 425,222 427,220 428,220 430,218 431,218 432,219 431,218 430,218 429,219 428,219 427,220 426,220 425,219 425,213 426,212 432,212 433,211 433,207 428,207 426,205 426,145 427,144 430,144 430,142 431,141 432,141 433,142 435,142 436,143 437,143 438,144 439,144 440,143 442,143 443,144 442,145 441,145 442,145 443,146 444,146 445,147 446,147 447,148 449,148 450,149 451,149 452,150 453,150 454,151 455,151 456,152 457,152 458,153 459,153 460,154 462,154 464,156 467,156 468,157 471,157 468,157 467,156 465,156 464,155 465,154 467,154 465,154 463,152 461,152 460,151 459,151 458,150 459,149 459,148 459,149 458,150 457,150 456,149 455,149 454,148 455,147 455,145 456,144 457,145 457,146 457,145 456,144 455,145 455,147 454,148 452,148 450,146 451,145 450,146 448,146 447,145 446,145 445,144 444,144 443,143 440,143 438,141 436,141 435,140 433,140 432,139 431,139 430,138 430,136 387,136 386,135 386,127 385,126 385,123 384,122 384,119 383,118 383,116 382,115 382,113 384,111 385,112 385,115 387,115 389,113 387,115 386,115 385,114 385,110 384,109 385,108 386,108 386,107 387,106 386,107 385,106 385,105 384,105 384,106 383,107 381,105 381,102 381,105 382,106 382,107 384,107 385,108 384,109 385,110 384,111 383,111 383,112 382,113 380,111 380,110 381,109 380,110 379,109 379,108 374,103 374,102 373,102 370,99 369,99 368,98 369,97 369,96 370,95 371,95 371,93 372,92 373,92 374,93 374,94 375,95 374,94 374,93 375,92 376,93 375,92 375,89 374,90 373,89 372,89 371,88 373,90 374,90 375,91 375,92 374,93 373,92 372,92 369,89 369,88 369,89 368,90 367,89 367,85 367,90 368,90 369,89 370,90 370,91 371,91 372,92 371,93 368,93 367,92 365,92 365,93 366,94 367,94 368,93 369,94 369,97 368,98 367,98 366,97 365,97 364,96 362,96 361,95 359,95 358,94 349,94 348,93 347,94 348,93 349,94 358,94 359,95 358,96 350,96 350,143 349,144 338,144 337,143 337,141 336,140 337,139 336,138 337,137 336,136 337,135 337,134 336,133 336,115 337,114 337,90 335,88 330,88 329,87 329,86 328,85 328,82 330,80 336,80 336,79 337,78 337,10 249,10 247,8 247,0 247,9 246,10 181,10 246,10 247,9 248,10 336,10 337,11 337,78 335,80 330,80 329,81 283,81 282,80 251,80 250,81 238,81 237,80 238,79 239,79 238,79 237,78 236,79 233,79 234,79 235,80 234,81 202,81 201,80 179,80 178,79 178,9 179,8 179,0" stroke="rgb(0%,0%,0%)" /><polygon fill="none" points="7,0 7,498 25,498 25,493 26,492 35,492 36,491 38,491 39,492 45,492 39,492 38,491 36,491 35,490 26,490 25,489 26,488 87,488 88,487 93,487 94,488 157,488 158,489 158,490 157,491 149,491 148,490 145,490 144,491 133,491 132,490 131,490 130,491 118,491 117,490 114,490 113,491 47,491 46,490 40,490 46,490 47,491 113,491 114,490 117,490 118,491 130,491 131,490 132,490 133,491 144,491 145,492 148,492 149,491 157,491 158,492 158,494 157,495 27,495 157,495 158,496 158,497 159,497 160,498 191,498 191,497 193,495 229,495 230,496 230,497 231,497 232,498 250,498 251,497 252,497 252,496 253,495 308,495 309,496 331,496 332,495 333,496 333,497 335,499 335,501 334,502 334,508 333,509 334,510 334,511 334,510 333,509 334,508 334,503 335,502 335,499 336,498 336,491 324,491 323,490 269,490 268,491 252,491 252,496 250,498 232,498 230,496 230,490 231,489 230,488 231,487 230,486 231,485 231,483 232,482 233,482 234,481 251,481 252,482 252,489 253,489 252,488 252,483 254,481 258,481 257,481 256,480 257,479 255,481 254,481 253,482 252,482 251,481 234,481 233,482 231,482 231,485 230,486 193,486 192,485 192,482 191,481 179,481 178,480 178,477 177,476 177,425 178,424 177,423 177,394 179,392 189,392 189,389 190,388 190,387 189,388 189,391 188,392 178,392 178,393 177,394 177,423 178,424 177,425 177,476 178,477 178,490 184,490 185,489 186,489 186,485 185,484 185,483 183,483 184,483 186,485 186,488 184,490 179,490 178,489 178,485 179,484 180,484 179,484 178,483 178,482 179,481 191,481 192,482 192,496 190,498 160,498 158,496 158,488 94,488 93,487 94,486 158,486 158,485 159,484 159,482 160,481 163,481 164,482 164,488 163,489 165,491 167,491 168,490 168,489 169,488 169,427 123,427 122,428 121,427 118,427 117,426 92,426 91,425 80,425 79,426 74,426 73,425 58,425 57,424 58,423 122,423 123,424 122,425 121,425 124,425 123,424 123,421 91,421 89,419 16,419 15,418 15,254 16,253 122,253 123,254 123,267 123,254 124,253 125,254 125,269 124,270 124,273 125,274 125,277 126,278 126,279 126,278 127,277 128,278 128,280 127,281 127,282 128,283 128,284 129,285 129,286 130,287 130,288 133,291 133,292 132,293 131,293 129,291 129,290 128,291 126,289 126,288 127,287 126,288 125,287 123,287 125,287 126,288 126,289 129,292 129,299 129,298 130,297 131,297 131,295 132,294 133,295 133,296 134,297 134,298 135,299 136,298 137,299 137,300 137,299 136,298 135,299 134,298 134,296 132,294 132,293 133,292 135,294 136,294 139,297 140,297 142,299 143,299 144,300 146,300 148,302 151,302 152,303 150,305 149,304 150,305 149,306 149,307 149,306 152,303 157,303 158,302 161,302 162,301 162,255 163,254 162,253 162,248 164,246 169,246 169,154 156,154 155,153 155,151 154,150 154,148 156,146 169,146 169,97 170,96 170,10 113,10 113,146 119,146 121,148 121,152 119,154 115,154 114,155 113,155 113,168 112,169 107,169 106,170 104,168 104,156 103,155 101,155 100,154 101,153 101,144 100,143 100,142 102,140 101,139 101,135 102,134 102,133 101,133 102,134 101,135 101,139 102,140 100,142 98,140 92,140 91,139 92,138 97,138 96,138 95,137 95,117 82,117 81,116 80,117 69,117 94,117 95,118 95,137 94,138 91,138 90,139 89,139 87,141 87,142 86,143 86,145 85,146 85,149 85,146 86,145 87,146 87,150 86,151 86,152 89,155 90,155 91,156 91,157 90,158 89,157 84,157 83,156 84,157 83,158 61,158 81,158 82,159 84,157 89,157 90,158 91,157 92,158 96,158 97,157 99,157 100,156 101,157 101,159 100,160 98,160 101,160 101,157 100,156 101,155 103,155 104,156 104,161 103,162 96,162 95,163 56,163 55,162 56,161 69,161 64,161 63,160 62,161 59,161 58,160 59,159 40,159 39,158 40,157 59,157 53,157 51,155 52,156 51,157 40,157 39,158 29,158 28,157 15,157 15,202 16,203 17,203 18,202 18,166 17,165 16,165 15,164 16,163 17,163 17,162 16,163 15,162 15,158 16,157 17,158 17,160 17,158 18,157 19,158 19,161 20,162 20,171 21,172 20,173 22,171 24,171 22,171 21,172 20,171 20,165 21,164 28,164 29,163 95,163 96,162 103,162 104,163 104,167 103,168 101,168 104,168 105,169 104,170 100,170 99,169 94,169 93,170 91,170 90,171 88,171 87,172 86,172 84,174 83,174 80,177 80,178 77,181 77,182 76,183 76,185 75,186 75,187 74,188 74,190 73,191 73,194 72,195 72,202 73,203 72,204 72,205 73,206 102,206 73,206 72,205 72,204 73,203 74,204 103,204 104,205 104,211 105,212 105,244 104,245 16,245 15,244 15,242 16,241 15,240 15,245 105,245 105,212 104,211 104,205 105,204 111,204 113,206 113,246 124,246 126,248 126,251 124,253 15,253 15,419 89,419 90,420 89,421 58,421 57,422 58,423 57,424 57,425 55,427 15,427 15,490 19,490 19,488 20,487 20,485 19,484 16,484 15,483 16,482 24,482 25,483 26,483 27,484 27,486 25,488 25,490 35,490 36,491 35,492 25,492 25,497 24,498 8,498 7,497" stroke="rgb(0%,0%,0%)" /></svg>