<?xml version="1.0" encoding="utf-8" ?>
<svg baseProfile="tiny" height="653" version="1.2" width="1024" xmlns="http://www.w3.org/2000/svg" xmlns:ev="http://www.w3.org/2001/xml-events" xmlns:xlink="http://www.w3.org/1999/xlink"><defs /><polygon fill="none" points="398,613 398,614 397,615 398,616 463,616 464,615 464,613" stroke="rgb(0%,0%,0%)" /><polygon fill="none" points="398,608 398,611 464,611 464,608" stroke="rgb(0%,0%,0%)" /><polygon fill="none" points="466,605 466,615 467,614 474,614 475,613 475,605" stroke="rgb(0%,0%,0%)" /><polygon fill="none" points="387,605 387,613 388,614 395,614 396,613 396,612 396,613 395,614 388,614 387,613 387,606 388,605 393,605 394,606 394,608 393,609 392,608 392,607 392,608 393,609 393,611 393,609 394,608 394,606 395,605 396,606 396,610 396,605" stroke="rgb(0%,0%,0%)" /><polygon fill="none" points="387,603 397,603 398,604 398,606 464,606 464,604 465,603 476,603 465,603 464,604 464,605 463,606 399,606 398,605 398,604 397,603" stroke="rgb(0%,0%,0%)" /><polygon fill="none" points="629,601 629,602 628,603 619,603 623,603 624,604 623,605 619,605 619,613 620,614 627,614 628,613 628,605 625,605 624,604 625,603 629,603 630,604 630,606 695,606 696,607 695,608 630,608 630,611 695,611 696,612 695,613 630,613 630,614 629,615 630,616 696,616 697,615 696,614 696,612 697,611 698,612 698,613 699,614 707,614 707,605 698,605 698,607 697,608 696,607 696,605 695,606 631,606 630,605 630,604 629,603 629,602 630,601 631,602 631,601" stroke="rgb(0%,0%,0%)" /><polygon fill="none" points="708,600" stroke="rgb(0%,0%,0%)" /><polygon fill="none" points="535,599 535,603 536,604 536,606 535,607 536,606 537,606 538,607 538,610 537,611 478,611 477,610 477,605 477,614 476,615 476,616 539,616 539,615 538,614 538,606 537,606 536,605 537,604 536,604 535,603 535,600 536,599 538,601 538,602 539,603 539,604 540,603 545,603 546,604 545,605 541,605 540,606 540,613 541,614 548,614 549,613 549,605 547,605 546,604 547,603 550,603 551,604 551,606 616,606 617,607 616,608 551,608 551,614 550,615 550,616 617,616 618,615 617,614 617,605 616,606 615,605 615,604 615,605 614,606 552,606 551,605 551,604 550,603 551,602 552,602 552,600 551,600 550,599 545,599 545,600 546,601 547,600 548,600 549,599 550,600 551,600 552,601 550,603 539,603 538,602 538,601 539,600 540,601 539,600 538,600 537,599" stroke="rgb(0%,0%,0%)" /><polygon fill="none" points="711,559" stroke="rgb(0%,0%,0%)" /><polygon fill="none" points="494,553 523,553" stroke="rgb(0%,0%,0%)" /><polygon fill="none" points="682,551 683,551" stroke="rgb(0%,0%,0%)" /><polygon fill="none" points="645,551" stroke="rgb(0%,0%,0%)" /><polygon fill="none" points="489,551 490,551" stroke="rgb(0%,0%,0%)" /><polygon fill="none" points="422,542 453,542" stroke="rgb(0%,0%,0%)" /><polygon fill="none" points="339,542 370,542" stroke="rgb(0%,0%,0%)" /><polygon fill="none" points="211,535 210,536 207,536 207,537 208,538 208,540 207,541 207,542 207,541 209,539 210,539 211,540 211,541 211,540 210,539 210,538 209,539 207,537 208,536 210,536 211,535 213,535 214,536 215,536 216,537 215,538 216,539 216,540 215,541 214,540 213,540 213,541 214,542 246,542 216,542 215,541 216,540 239,540 217,540 216,539 216,536 215,536 214,535" stroke="rgb(0%,0%,0%)" /><polygon fill="none" points="352,463 352,465 353,464" stroke="rgb(0%,0%,0%)" /><polygon fill="none" points="352,454 351,455 349,455 349,457 350,457 349,456 350,455 351,455" stroke="rgb(0%,0%,0%)" /><polygon fill="none" points="158,452" stroke="rgb(0%,0%,0%)" /><polygon fill="none" points="511,450 511,452 515,452 514,451 514,450" stroke="rgb(0%,0%,0%)" /><polygon fill="none" points="505,450 505,451 504,452 508,452 508,450" stroke="rgb(0%,0%,0%)" /><polygon fill="none" points="491,450 491,452 494,452 494,450" stroke="rgb(0%,0%,0%)" /><polygon fill="none" points="484,450 484,452 487,452 487,450" stroke="rgb(0%,0%,0%)" /><polygon fill="none" points="470,450 470,452 473,452 473,450" stroke="rgb(0%,0%,0%)" /><polygon fill="none" points="456,450 456,452 459,452 459,450" stroke="rgb(0%,0%,0%)" /><polygon fill="none" points="442,450 442,452 446,452 445,451 445,450" stroke="rgb(0%,0%,0%)" /><polygon fill="none" points="436,450 436,451 435,452 439,452 439,450" stroke="rgb(0%,0%,0%)" /><polygon fill="none" points="408,450 408,452 411,452 411,450" stroke="rgb(0%,0%,0%)" /><polygon fill="none" points="401,450 401,452 404,452 404,450" stroke="rgb(0%,0%,0%)" /><polygon fill="none" points="394,450 394,452 397,452 397,450" stroke="rgb(0%,0%,0%)" /><polygon fill="none" points="387,450 387,452 390,452 390,450" stroke="rgb(0%,0%,0%)" /><polygon fill="none" points="373,450 373,452 377,452 374,452 373,451 374,450 376,450" stroke="rgb(0%,0%,0%)" /><polygon fill="none" points="367,450 367,451 366,452 370,452 370,450" stroke="rgb(0%,0%,0%)" /><polygon fill="none" points="325,450 325,452 328,452 328,450" stroke="rgb(0%,0%,0%)" /><polygon fill="none" points="320,450 321,451 320,452 321,452 321,450" stroke="rgb(0%,0%,0%)" /><polygon fill="none" points="477,448 477,452 480,452 480,450 478,450 477,449 478,448 479,448" stroke="rgb(0%,0%,0%)" /><polygon fill="none" points="448,448 452,448 453,449 452,450 449,450 449,452 453,452 450,452 449,451 450,450 452,450 453,449 453,448" stroke="rgb(0%,0%,0%)" /><polygon fill="none" points="429,448 430,448 431,449 430,450 428,450 428,452 432,452 432,450 431,449 431,448" stroke="rgb(0%,0%,0%)" /><polygon fill="none" points="368,448 379,448 380,449 380,452 384,452 384,450 381,450 380,449 380,448" stroke="rgb(0%,0%,0%)" /><polygon fill="none" points="468,447 467,448 464,448 465,449 464,450 463,450 463,452 466,452 466,450 465,449 466,448 468,448 469,447 470,448 472,448 471,448 470,447" stroke="rgb(0%,0%,0%)" /><polygon fill="none" points="417,447 416,448 414,448 414,450 415,451 414,452 418,452 418,450 415,450 414,449 415,448 416,448 417,447 419,447 420,448 420,449 421,448 422,449 422,452 425,452 425,450 426,449 426,448 423,448 422,449 420,447" stroke="rgb(0%,0%,0%)" /><polygon fill="none" points="357,446" stroke="rgb(0%,0%,0%)" /><polygon fill="none" points="352,444 351,445 352,445" stroke="rgb(0%,0%,0%)" /><polygon fill="none" points="500,442 500,443 499,444 497,444 497,445 498,446 498,457 501,457 501,454 500,453 500,449 501,448 501,444 500,443" stroke="rgb(0%,0%,0%)" /><polygon fill="none" points="350,442 349,443 349,446 350,447 353,447 350,447 349,446 349,444 351,442" stroke="rgb(0%,0%,0%)" /><polygon fill="none" points="357,439 358,439" stroke="rgb(0%,0%,0%)" /><polygon fill="none" points="355,437 355,438" stroke="rgb(0%,0%,0%)" /><polygon fill="none" points="353,435" stroke="rgb(0%,0%,0%)" /><polygon fill="none" points="529,429 529,431" stroke="rgb(0%,0%,0%)" /><polygon fill="none" points="345,426 345,450 344,451 345,452 345,473 353,473 353,467 352,467 351,468 350,467 350,464 349,463 350,462 349,461 351,459 352,460 352,461 352,459 353,458 352,458 351,459 350,459 350,460 349,461 350,462 349,463 349,464 350,465 350,468 351,468 352,467 353,468 353,469 352,470 351,470 351,472 350,473 346,473 345,472 345,451 346,450 348,450 349,449 352,449 353,450 352,451 350,451 349,452 347,452 349,452 350,453 349,452 350,451 352,451 353,452 355,452 356,453 355,454 356,455 357,455 356,455 355,454 356,453 357,453 356,453 355,452 353,452 352,451 353,450 355,450 353,450 352,449 349,449 348,450 346,450 345,449 345,427 346,426 352,426 353,427 353,428 352,429 350,429 350,435 349,436 349,439 350,440 352,440 351,440 349,438 349,437 350,436 351,436 352,437 353,437 352,437 351,436 351,435 350,434 351,433 352,433 353,432 353,431 351,431 350,430 351,429 352,429 353,428 353,426" stroke="rgb(0%,0%,0%)" /><polygon fill="none" points="339,424 340,424 342,426 342,449 342,426 340,424" stroke="rgb(0%,0%,0%)" /><polygon fill="none" points="531,422 531,424" stroke="rgb(0%,0%,0%)" /><polygon fill="none" points="529,422 529,425" stroke="rgb(0%,0%,0%)" /><polygon fill="none" points="158,418" stroke="rgb(0%,0%,0%)" /><polygon fill="none" points="529,415 529,418 529,416 530,415 531,416 531,418 531,416 530,415" stroke="rgb(0%,0%,0%)" /><polygon fill="none" points="344,415 346,415 348,417 349,417 350,418 350,419 351,420 351,421 350,422 351,422 352,423 351,424 349,424 348,423 347,424 345,424 344,423 343,423 342,422 341,422 340,421 340,418 339,418 340,419 339,420 340,421 339,422 342,422 343,423 344,423 345,424 354,424 355,425 355,434 356,435 359,435 360,436 359,437 357,437 359,437 360,438 360,441 359,442 359,443 358,444 357,443 357,441 356,442 355,441 355,448 355,445 356,444 358,444 359,443 360,444 360,446 359,447 359,448 358,449 357,449 358,450 362,450 363,451 362,452 360,452 359,453 359,454 361,452 363,452 363,450 359,450 358,449 360,447 360,444 359,443 359,442 360,441 360,435 357,435 355,433 355,425 354,424 353,424 352,423 352,422 351,421 351,419 352,418 352,416 351,416 352,417 352,418 351,419 348,416 347,416 346,415" stroke="rgb(0%,0%,0%)" /><polygon fill="none" points="259,410 259,411" stroke="rgb(0%,0%,0%)" /><polygon fill="none" points="529,408 529,411 529,409 530,408 531,409 531,411 531,409 530,408" stroke="rgb(0%,0%,0%)" /><polygon fill="none" points="242,400 256,400 258,402 262,402 258,402 257,401 258,400 262,400" stroke="rgb(0%,0%,0%)" /><polygon fill="none" points="213,399 214,399" stroke="rgb(0%,0%,0%)" /><polygon fill="none" points="732,397 816,397" stroke="rgb(0%,0%,0%)" /><polygon fill="none" points="661,396 686,396 687,397 687,396" stroke="rgb(0%,0%,0%)" /><polygon fill="none" points="311,394 312,395 311,396 312,397 312,398 314,398 315,399 316,398 316,397 314,395 315,394 316,394" stroke="rgb(0%,0%,0%)" /><polygon fill="none" points="303,394 303,396 304,397 304,398 305,398 306,399 304,401 303,400 304,401 304,403 303,404 303,406 303,404 304,403 304,401 306,399 303,396 303,395 304,394 306,396 307,396 308,397 309,397 309,395 308,395 307,396 306,396 305,395 306,394" stroke="rgb(0%,0%,0%)" /><polygon fill="none" points="881,390 881,392 897,392 897,390" stroke="rgb(0%,0%,0%)" /><polygon fill="none" points="856,390 856,392 873,392 873,390" stroke="rgb(0%,0%,0%)" /><polygon fill="none" points="757,390 757,392 773,392 773,390" stroke="rgb(0%,0%,0%)" /><polygon fill="none" points="214,390 214,397 215,397 216,398 232,398 233,399 232,400 216,400 229,400 230,401 230,403 230,401 231,400 232,400 233,401 233,405 239,405 240,404 240,399 241,398 262,398 216,398 214,396" stroke="rgb(0%,0%,0%)" /><polygon fill="none" points="781,389 781,392 798,392 798,390 782,390" stroke="rgb(0%,0%,0%)" /><polygon fill="none" points="312,388 312,391 315,391 316,392 314,390 314,388" stroke="rgb(0%,0%,0%)" /><polygon fill="none" points="308,388 307,389 308,390 309,390 309,388" stroke="rgb(0%,0%,0%)" /><polygon fill="none" points="309,381 309,384" stroke="rgb(0%,0%,0%)" /><polygon fill="none" points="312,380 312,384 314,384 314,380" stroke="rgb(0%,0%,0%)" /><polygon fill="none" points="306,380 307,381 307,383 307,381" stroke="rgb(0%,0%,0%)" /><polygon fill="none" points="169,380 168,381 165,381 168,381 169,380 211,380" stroke="rgb(0%,0%,0%)" /><polygon fill="none" points="837,376 837,382 836,383 832,383 832,385 833,385 832,384 833,383 834,383 835,384 836,383 837,384 838,383 839,384 839,388 839,376" stroke="rgb(0%,0%,0%)" /><polygon fill="none" points="819,375 819,387" stroke="rgb(0%,0%,0%)" /><polygon fill="none" points="312,374 312,377 314,377 314,374" stroke="rgb(0%,0%,0%)" /><polygon fill="none" points="309,374 309,376" stroke="rgb(0%,0%,0%)" /><polygon fill="none" points="307,374 307,376" stroke="rgb(0%,0%,0%)" /><polygon fill="none" points="932,372 931,373 931,374 930,375 930,388 930,386 931,385 932,385 935,388 935,387 932,384 932,377 933,376 935,376 935,375 934,374 934,373 934,374 935,375 934,376 933,376 931,374 932,373" stroke="rgb(0%,0%,0%)" /><polygon fill="none" points="700,372 701,373 701,389 702,390 702,393 701,394 700,394 702,394 702,390 701,389 701,372" stroke="rgb(0%,0%,0%)" /><polygon fill="none" points="680,372 680,376 681,377 680,378 681,379 683,379 684,378 683,378 682,379 681,378 681,377 680,376 680,373 681,372 682,373 682,374 684,376 684,373 683,373 682,372" stroke="rgb(0%,0%,0%)" /><polygon fill="none" points="312,367 312,372 312,371 313,370 314,371 314,372 314,367" stroke="rgb(0%,0%,0%)" /><polygon fill="none" points="308,367 307,368 307,370 307,368 308,367 309,368 309,370 309,367" stroke="rgb(0%,0%,0%)" /><polygon fill="none" points="248,367 247,368 244,368 243,369 242,368 240,368 240,373 239,374 238,373 238,372 237,371 237,368 235,370 235,371 235,370 236,369 237,370 237,371 238,372 238,373 237,374 236,373 236,374 239,374 240,373 246,373 247,374 251,374 252,373 254,373 254,371 255,370 255,369 254,368 253,368 252,369 251,368 251,369 250,370 251,369 252,370 253,369 254,369 255,370 254,371 254,372 253,373 251,373 250,374 247,374 245,372 245,371 246,370 248,372 248,369 247,368 248,367 249,367" stroke="rgb(0%,0%,0%)" /><polygon fill="none" points="196,365 195,366 194,366 195,366" stroke="rgb(0%,0%,0%)" /><polygon fill="none" points="702,363 702,365" stroke="rgb(0%,0%,0%)" /><polygon fill="none" points="682,361 681,362 681,363 680,364 680,365 681,365 682,366 683,366 683,364 684,363 684,361" stroke="rgb(0%,0%,0%)" /><polygon fill="none" points="166,359 165,360 165,378 166,379 167,379 170,376 172,376 173,377 172,378 171,378 172,378 173,377 174,377 175,376 176,376 177,375 178,375 179,374 180,374 181,373 182,373 183,372 184,372 186,370 188,370 188,369 189,368 190,368 192,370 193,370 194,371 195,371 196,372 197,372 198,373 199,373 200,374 201,374 202,375 203,375 204,376 205,376 206,377 207,377 208,378 209,378 208,378 207,377 206,377 205,376 204,376 202,374 203,373 204,373 205,374 206,374 207,375 208,375 209,376 210,376 211,377 212,377 211,377 210,376 209,376 208,375 207,375 206,374 205,374 204,373 203,373 202,372 201,372 200,371 199,371 198,370 197,370 196,369 195,369 194,368 193,368 192,367 193,368 194,368 195,369 196,369 197,370 198,370 199,371 198,372 196,372 195,371 194,371 193,370 192,370 190,368 189,368 187,370 186,370 185,371 184,371 182,373 181,373 180,374 179,374 178,375 177,375 176,376 175,376 174,377 173,377 172,376 174,374 175,374 176,373 177,373 178,372 179,372 180,371 181,371 183,369 184,369 185,368 186,368 185,368 184,369 183,369 181,371 180,371 179,372 178,372 177,373 176,373 175,374 174,374 173,375 172,375 171,376 170,376 168,378 167,378 166,379 165,378 165,360" stroke="rgb(0%,0%,0%)" /><polygon fill="none" points="680,357 680,358 681,359 680,360 681,359 684,359 684,357" stroke="rgb(0%,0%,0%)" /><polygon fill="none" points="459,356 474,356" stroke="rgb(0%,0%,0%)" /><polygon fill="none" points="411,356 411,357 410,358 405,358 404,359 402,359 401,360 400,359 400,360 402,360 403,359 404,359 405,358 411,358 411,357 412,356 413,356 414,357 413,358 413,360 415,360 415,359 416,358 415,359 414,358 414,357 415,356 424,356" stroke="rgb(0%,0%,0%)" /><polygon fill="none" points="201,356 202,356" stroke="rgb(0%,0%,0%)" /><polygon fill="none" points="169,356 168,357 167,357 168,357 169,358 170,358 172,360 173,360 174,361 175,361 176,362 177,362 178,363 179,363 180,364 181,364 182,365 183,365 184,366 183,367 184,366 186,366 187,365 188,365 189,366 190,366 191,365 192,365 193,364 194,364 195,363 196,363 198,361 199,361 200,360 202,360 203,361 202,362 201,362 200,363 199,363 198,364 199,364 201,362 202,362 203,361 204,361 205,362 204,361 205,360 206,360 208,358 210,358 211,357 214,360 214,366 213,367 211,367 211,370 213,370 214,371 214,378 213,379 214,378 215,379 215,380 214,381 215,380 215,379 214,378 214,370 213,369 213,367 214,366 214,361 215,360 214,360 213,359 214,358 215,358 215,357 214,358 212,358 211,357 210,358 208,358 207,359 206,358 206,357 207,356 209,356 204,356 205,356 206,357 206,359 204,361 203,361 202,360 203,359 202,358 176,358 174,360 173,360 172,359 172,358 171,359 170,358 169,358 168,357 169,356 173,356 174,357 173,356" stroke="rgb(0%,0%,0%)" /><polygon fill="none" points="214,355 213,356" stroke="rgb(0%,0%,0%)" /><polygon fill="none" points="509,354 509,355 510,356 520,356 510,356 509,355 510,354 520,354" stroke="rgb(0%,0%,0%)" /><polygon fill="none" points="484,354 484,355 485,356 487,356 488,357 487,358 486,358 484,360 483,360 484,360 486,358 488,358 488,357 489,356 496,356 497,357 496,358 495,358 496,359 496,360 498,360 499,359 500,359 501,360 503,360 504,359 505,359 506,360 508,360 510,358 508,360 507,360 505,358 504,359 503,359 502,360 500,358 499,359 498,359 497,358 497,357 498,356 499,356 485,356 484,355 485,354 500,354" stroke="rgb(0%,0%,0%)" /><polygon fill="none" points="459,354 475,354" stroke="rgb(0%,0%,0%)" /><polygon fill="none" points="434,354 449,354 450,355 449,356 434,356 436,356 437,357 438,356 449,356 450,355 450,354" stroke="rgb(0%,0%,0%)" /><polygon fill="none" points="410,354 425,354" stroke="rgb(0%,0%,0%)" /><polygon fill="none" points="403,354 407,354" stroke="rgb(0%,0%,0%)" /><polygon fill="none" points="692,353 691,354 689,354 690,354 691,355 690,356 688,356 688,357 687,358 686,358 686,368 688,368 689,369 689,370 688,371 685,371 684,370 681,370 680,369 681,368 683,368 681,368 680,369 681,370 684,370 685,371 688,371 689,372 688,373 686,373 686,375 689,375 689,372 690,371 694,371 694,368 695,367 696,367 697,368 699,368 700,369 699,370 698,370 698,373 698,371 700,369 701,370 702,369 701,370 700,369 700,368 697,368 695,366 696,365 697,365 698,366 700,366 700,364 698,362 698,360 698,363 695,366 695,367 694,368 693,367 693,365 694,364 694,362 691,362 691,370 690,371 689,370 689,365 688,364 689,363 689,359 690,358 690,357 691,356 693,356 692,356 691,355 693,353" stroke="rgb(0%,0%,0%)" /><polygon fill="none" points="839,351 838,352 837,352 837,367 838,367 839,366" stroke="rgb(0%,0%,0%)" /><polygon fill="none" points="817,351 817,359 816,360 815,359 815,352 815,365 815,361 816,360 817,361 817,366" stroke="rgb(0%,0%,0%)" /><polygon fill="none" points="841,350 841,366" stroke="rgb(0%,0%,0%)" /><polygon fill="none" points="819,350 819,366" stroke="rgb(0%,0%,0%)" /><polygon fill="none" points="729,350 729,367 730,366 731,367 731,361 732,360 733,361 733,362 733,360 732,360 731,359 731,350" stroke="rgb(0%,0%,0%)" /><polygon fill="none" points="699,347 699,358" stroke="rgb(0%,0%,0%)" /><polygon fill="none" points="930,346 930,347 931,348 931,350 930,351 929,350 928,350 928,366 928,351 929,350 930,351 930,366 930,361 931,360 930,359 930,353 931,352 932,353 932,358 932,352 931,352 930,351 931,350 931,347" stroke="rgb(0%,0%,0%)" /><polygon fill="none" points="463,345 462,346 460,346 460,347 461,347 462,346 463,347 463,348 462,349 459,349 458,348 458,347 457,347 456,346 459,349 459,352 460,351 476,351 475,350 476,349 464,349 463,348 464,347 464,345" stroke="rgb(0%,0%,0%)" /><polygon fill="none" points="436,344 436,345 437,346 436,347 436,348 435,349 434,348 434,347 434,351 451,351 453,353 454,353 454,352 453,353 451,351 451,348 450,349 449,348 449,347 447,347 447,348 446,349 437,349 436,348 437,347 437,346 438,345 440,347 440,346 439,346 438,345 438,344" stroke="rgb(0%,0%,0%)" /><polygon fill="none" points="500,343 499,344 498,344 497,345 495,345 498,345 499,344 500,345 500,347 501,348 500,349 499,349 497,347 496,347 496,348 495,349 485,349 484,348 483,349 483,351 482,352 482,353 482,352 483,351 495,351 496,352 497,351 500,351 500,349 501,348 502,349 503,348 504,349 503,348 504,347 502,349 500,347 500,344 501,343 503,345 505,345 506,344 507,344 508,343 509,344 509,343 507,343 506,344 505,344 504,345 503,345 502,344 502,343" stroke="rgb(0%,0%,0%)" /><polygon fill="none" points="619,342 619,345" stroke="rgb(0%,0%,0%)" /><polygon fill="none" points="612,342 611,343 611,345 613,345 614,344 614,343 613,342" stroke="rgb(0%,0%,0%)" /><polygon fill="none" points="603,340 603,342 604,342 605,341 607,343 607,344 606,345 604,345 603,346 603,347 605,349 605,350 609,354 615,354 616,353 617,353 619,351 619,349 620,348 619,349 618,348 618,347 617,346 616,346 617,346 618,347 618,348 614,352 611,352 610,351 609,351 606,348 606,347 605,346 606,345 607,345 607,343 605,341 605,340" stroke="rgb(0%,0%,0%)" /><polygon fill="none" points="605,337 605,338" stroke="rgb(0%,0%,0%)" /><polygon fill="none" points="610,335 607,338 607,339 607,338 609,336 610,336 611,335 613,335 614,336 615,336 618,339 618,340 618,339 619,338 620,339 620,340 620,339 619,338 619,336 618,335 618,336 619,337 619,338 618,339 616,337 616,336 615,336 614,335" stroke="rgb(0%,0%,0%)" /><polygon fill="none" points="607,335" stroke="rgb(0%,0%,0%)" /><polygon fill="none" points="376,326 383,326" stroke="rgb(0%,0%,0%)" /><polygon fill="none" points="360,326 368,326" stroke="rgb(0%,0%,0%)" /><polygon fill="none" points="928,325 928,342 930,342 930,326 929,325" stroke="rgb(0%,0%,0%)" /><polygon fill="none" points="841,325 841,341 840,342 839,341 839,326 839,342 841,342" stroke="rgb(0%,0%,0%)" /><polygon fill="none" points="819,325 819,341 818,342 817,341 817,326 817,342 819,342" stroke="rgb(0%,0%,0%)" /><polygon fill="none" points="729,325 729,342 731,342 731,328 732,327 733,328 733,325" stroke="rgb(0%,0%,0%)" /><polygon fill="none" points="841,315 841,320 841,316 842,315 843,315 844,316 843,317 844,317 845,318 845,319 845,318 844,317 844,316 845,315 847,315" stroke="rgb(0%,0%,0%)" /><polygon fill="none" points="839,315 839,319" stroke="rgb(0%,0%,0%)" /><polygon fill="none" points="906,313 906,315 910,315 911,316 910,317 908,317 908,318 907,319 906,318 906,317 906,319 907,319 908,318 909,319 908,318 909,317 910,317 911,318 911,319 911,316 912,315 927,315 928,316 928,320 930,320 930,319 931,318 932,318 933,317 934,317 935,316 934,317 933,317 932,316 932,317 931,318 930,317 930,315 930,319 929,320 928,319 928,315 907,315 906,314 907,313 929,313" stroke="rgb(0%,0%,0%)" /><polygon fill="none" points="881,313 881,315 887,315 888,316 887,317 895,317 896,318 896,317 889,317 888,316 889,315 897,315 897,313" stroke="rgb(0%,0%,0%)" /><polygon fill="none" points="856,313 856,315 854,317 855,316 856,317 859,317 856,317 855,316 856,315 860,315 861,316 861,318 860,319 861,319 861,316 862,315 873,315 873,313" stroke="rgb(0%,0%,0%)" /><polygon fill="none" points="840,313 847,313" stroke="rgb(0%,0%,0%)" /><polygon fill="none" points="781,313 781,315 790,315 791,316 790,317 785,317 784,318 783,318 781,320 780,320 782,320 782,319 783,318 784,318 785,317 792,317 791,316 792,315 795,315 796,316 796,317 795,318 794,317 795,318 794,319 793,319 795,319 795,318 796,317 796,316 797,315 798,315 798,313" stroke="rgb(0%,0%,0%)" /><polygon fill="none" points="757,313 772,313 773,314 772,315 757,315 758,316 758,317 759,318 758,319 757,319 759,319 759,318 760,317 768,317 761,317 760,316 761,315 772,315 773,316 773,317 775,317 775,316 776,315 778,317 778,318 776,320 775,319 775,320 777,320 777,319 778,318 778,317 779,316 778,315 778,314 778,315 777,316 776,315 774,317 773,316 773,313" stroke="rgb(0%,0%,0%)" /><polygon fill="none" points="750,312 749,313 730,313 729,314 729,320 731,320 731,316 732,315 733,316 733,318 733,316 734,315 735,315 736,316 736,317 735,318 735,319 734,320 733,320 734,320 737,317 743,317 737,317 736,316 737,315 748,315 731,315 731,319 730,320 729,319 729,314 730,313 749,313 750,312 754,312" stroke="rgb(0%,0%,0%)" /><polygon fill="none" points="800,311 800,312 801,311 802,312 802,313 803,312 805,312 806,313 806,315 814,315 815,316 814,317 806,317 816,317 817,318 817,319 817,316 818,315 819,316 819,320 819,313 806,313 805,312 803,312 802,311" stroke="rgb(0%,0%,0%)" /><polygon fill="none" points="172,309 172,310 173,310 174,311 174,312 175,311 176,311 177,312 176,313 176,314 175,315 175,322 176,323 176,324 179,327 178,328 176,328 178,328 179,327 185,327 189,323 189,314 187,312 188,311 189,311 190,312 190,311 191,310 192,310 191,310 190,311 186,311 185,312 184,312 183,311 181,311 180,312 179,311 180,312 177,315 176,314 176,313 177,312 176,311 174,311" stroke="rgb(0%,0%,0%)" /><polygon fill="none" points="683,296 688,296" stroke="rgb(0%,0%,0%)" /><polygon fill="none" points="541,292" stroke="rgb(0%,0%,0%)" /><polygon fill="none" points="709,286 709,390 728,390 727,390 726,389 725,390 710,390 709,389" stroke="rgb(0%,0%,0%)" /><polygon fill="none" points="949,281" stroke="rgb(0%,0%,0%)" /><polygon fill="none" points="660,250 661,251 662,250 665,250 666,251 665,252 663,252 663,254 665,256 666,256 665,256 663,254 663,253 664,252 665,252 668,255 670,255 668,255 665,252 666,251 665,250" stroke="rgb(0%,0%,0%)" /><polygon fill="none" points="935,246 935,248 937,248 938,247 939,247 940,248 941,248 942,249 942,279 941,280 940,280 940,282 941,283 940,282 940,281 941,280 942,280 942,248 940,248 939,247 937,247 936,246" stroke="rgb(0%,0%,0%)" /><polygon fill="none" points="679,245" stroke="rgb(0%,0%,0%)" /><polygon fill="none" points="408,142 408,145 407,146 407,147 408,148 407,149 408,149 408,143 409,142 472,142" stroke="rgb(0%,0%,0%)" /><polygon fill="none" points="318,133 319,134 318,135 392,135 393,136 392,137 318,137 391,137 392,138 390,140 318,140 391,140 392,139 393,140 393,141 392,142 319,142 391,142 392,143 392,145 404,145 405,144 405,143 406,142 405,141 406,140 473,140 474,141 474,142 474,135 408,135 407,134 408,133 475,133 404,133 403,134 402,133 395,133 394,134 394,135 393,136 392,135 392,133" stroke="rgb(0%,0%,0%)" /><polygon fill="none" points="709,129 708,130 701,130 700,131 318,131 700,131 701,132 700,133 698,133 697,134 697,135 696,136 695,135 695,133 634,133 633,134 632,133 625,133 624,134 624,135 623,136 622,135 622,133 561,133 560,134 559,133 552,133 551,134 552,133 559,133 560,134 560,142 559,143 554,143 553,142 553,139 553,142 552,143 551,142 551,138 551,143 560,143 560,134 561,133 562,134 562,144 561,145 550,145 549,144 549,137 550,136 549,135 549,133 487,133 486,134 485,133 478,133 476,135 476,142 477,143 485,143 486,142 486,138 487,137 488,138 488,143 486,145 476,145 475,144 475,145 487,145 488,144 488,138 489,137 548,137 549,138 549,145 561,145 562,144 562,143 563,142 562,141 563,140 620,140 621,141 621,142 622,143 622,145 621,146 620,146 619,145 619,142 617,142 616,143 615,142 565,142 567,142 568,143 567,144 565,144 565,145 564,146 563,146 564,146 566,144 568,144 568,143 569,142 615,142 616,143 615,144 616,145 616,147 617,147 618,146 621,146 622,145 634,145 635,144 635,143 636,142 639,142 640,143 639,144 638,144 638,145 637,146 636,146 637,146 638,145 639,146 639,148 639,146 638,145 639,144 640,144 640,143 641,142 694,142 695,143 695,144 696,145 699,145 696,145 695,144 695,142 696,141 697,142 697,143 700,143 701,144 701,217 700,218 696,218 695,217 695,216 655,216 655,217 654,218 520,218 520,227 524,227 525,226 527,226 529,228 529,253 528,254 528,258 534,258 535,259 537,259 538,260 538,261 537,262 537,263 536,264 535,264 536,264 538,262 539,263 541,263 539,263 538,262 538,261 539,260 542,260 543,261 543,264 544,264 546,262 547,263 548,263 549,264 550,264 552,266 533,285 534,285 552,267 552,266 550,264 549,264 547,262 546,262 545,261 543,261 542,260 543,259 546,259 547,260 548,260 550,262 551,262 554,265 554,268 536,286 537,286 554,269 555,270 554,269 554,265 551,262 550,262 548,260 547,260 546,259 547,258 546,257 546,256 543,256 545,256 547,258 546,259 543,259 542,258 538,258 537,257 536,257 535,256 535,255 534,254 534,249 535,248 536,248 537,249 541,249 541,248 542,247 542,244 541,243 542,242 546,242 547,243 547,244 547,243 548,242 554,242 556,244 555,245 555,246 554,247 553,246 552,246 551,245 549,245 549,248 559,258 565,258 567,260 566,261 568,259 568,257 568,259 567,260 565,258 565,257 570,252 571,252 572,251 572,250 574,248 575,248 576,249 578,249 579,248 589,248 589,228 591,226 592,226 593,227 593,228 594,229 593,230 593,234 592,235 591,235 592,235 593,236 592,237 591,237 592,237 593,238 593,250 594,251 645,251 646,250 646,230 645,229 646,228 646,227 647,226 651,226 652,227 652,249 658,249 659,248 666,248 667,249 680,249 667,249 666,248 667,247 679,247 666,247 665,248 659,248 658,247 655,247 654,246 654,245 655,244 656,245 656,243 657,242 656,241 657,240 656,239 656,233 657,232 664,232 661,232 660,231 659,232 656,232 656,243 655,244 654,243 654,230 654,247 658,247 659,248 658,249 653,249 652,248 652,227 653,226 654,226 655,227 655,228 656,228 657,229 662,229 663,230 664,229 679,229 680,230 679,231 679,232 678,233 678,243 678,233 679,232 680,233 680,243 681,244 681,245 695,245 696,246 696,244 697,243 697,234 697,243 695,245 682,245 680,243 680,233 681,232 686,232 687,233 687,235 688,236 687,237 687,240 688,241 689,241 690,240 691,240 691,237 690,237 689,236 691,234 690,235 689,234 689,233 690,232 696,232 691,232 690,231 690,230 691,229 693,229 694,230 697,230 698,231 698,232 699,233 699,244 698,245 699,244 699,238 700,237 699,236 699,232 697,230 694,230 693,229 694,228 695,228 697,226 700,226 702,228 702,246 701,247 698,247 700,247 701,248 701,253 700,254 695,254 694,253 695,252 699,252 696,252 695,251 695,250 696,249 699,249 696,249 695,248 694,248 693,247 691,247 689,249 683,249 682,250 682,251 683,252 681,254 684,251 683,252 682,251 682,250 683,249 689,249 691,247 693,247 694,248 695,248 696,249 695,250 691,250 694,250 695,251 695,252 694,253 692,253 691,252 691,253 690,254 689,254 688,255 687,255 686,256 685,256 683,258 682,258 681,259 680,258 681,259 673,267 673,269 671,271 671,272 670,273 670,275 669,276 669,279 668,280 666,280 666,281 665,282 666,281 668,283 666,285 665,284 666,285 666,286 667,286 668,285 669,286 669,287 668,288 668,289 668,288 669,287 700,287 701,288 701,290 700,291 633,291 632,292 631,292 630,291 592,291 591,290 587,290 585,288 585,287 581,283 581,282 577,278 577,277 576,276 577,275 576,276 574,274 571,274 569,276 568,275 568,274 569,273 569,272 570,271 571,271 570,271 569,272 568,272 568,275 569,276 568,277 568,278 567,279 567,280 565,282 563,280 563,279 560,276 560,275 561,274 560,273 561,274 560,275 559,275 558,274 555,274 552,277 552,278 549,281 549,282 545,286 545,287 542,290 539,290 538,291 536,291 535,290 535,289 534,288 534,287 530,287 529,288 528,288 528,292 529,293 529,348 527,350 526,349 513,349 512,348 512,347 510,347 511,347 512,348 511,349 508,349 508,351 521,351 522,352 522,356 523,356 524,355 528,355 529,356 529,399 528,400 528,404 531,404 552,425 551,426 550,426 548,428 547,428 546,429 545,429 544,430 543,430 542,431 538,431 537,432 534,432 533,433 532,433 531,432 531,430 531,432 530,433 528,433 528,437 529,438 529,449 528,450 527,450 526,449 527,448 526,447 526,440 526,446 525,447 524,447 523,448 518,448 520,448 521,449 520,450 518,450 518,452 528,452 529,453 529,542 527,544 526,543 526,514 525,513 525,512 524,511 518,511 517,512 515,512 514,513 512,513 511,514 511,517 513,515 514,515 515,514 517,514 518,513 522,513 523,514 522,515 522,517 520,519 520,543 520,519 521,518 523,520 523,543 523,520 522,519 522,515 523,514 523,513 518,513 517,512 518,511 524,511 525,512 525,513 526,514 526,543 524,545 523,545 524,545 525,546 525,549 524,550 493,550 492,549 492,544 493,543 493,539 494,538 494,535 495,534 495,533 496,532 496,531 497,530 497,529 499,527 499,526 500,525 499,526 499,527 498,528 497,528 496,527 497,526 497,525 499,523 499,522 502,519 503,519 504,518 505,519 505,520 504,521 503,521 501,523 502,523 505,520 505,518 504,518 503,519 502,519 498,523 498,524 496,526 495,525 495,523 497,521 497,519 495,519 495,521 496,522 495,523 495,525 496,526 496,527 495,528 495,529 494,530 494,531 493,532 491,530 492,529 491,530 491,531 490,532 489,532 488,533 487,533 487,534 488,533 490,535 489,534 489,533 491,531 492,531 493,532 493,533 492,534 492,538 491,539 491,542 491,539 492,538 493,539 493,543 492,544 492,552 491,553 488,553 487,552 459,552 457,554 454,554 453,553 455,551 457,551 455,551 454,552 453,551 453,546 454,545 454,544 455,543 457,543 458,544 490,544 459,544 458,543 455,543 454,544 423,544 422,545 420,543 417,543 416,544 376,544 375,543 373,543 372,544 340,544 339,545 337,543 335,543 334,542 334,479 336,477 344,477 346,475 354,475 355,474 355,464 356,463 358,463 359,464 359,465 358,466 359,466 360,467 360,468 358,470 357,470 359,472 359,473 360,474 359,475 357,475 359,475 360,476 359,477 359,478 358,479 357,478 357,477 357,479 359,479 359,478 360,477 360,473 358,471 358,470 359,469 360,469 360,467 359,466 359,456 358,457 356,457 355,458 355,460 355,458 356,457 358,457 359,458 359,460 358,461 359,462 358,463 356,463 355,464 355,474 354,475 345,475 343,477 338,477 337,476 339,474 341,474 342,473 342,451 341,452 340,451 340,427 338,427 337,426 335,426 334,427 333,427 333,434 332,435 331,434 331,425 313,425 313,472 331,472 331,466 330,465 328,465 327,464 328,463 330,463 328,463 327,462 325,462 324,461 323,461 322,460 322,458 323,457 324,458 324,459 324,458 323,457 325,455 325,454 325,455 322,458 321,457 321,454 321,457 322,458 322,459 321,460 319,460 318,459 318,441 320,439 322,439 323,438 325,438 326,437 329,437 330,436 331,436 332,437 332,464 333,465 333,471 334,472 334,473 337,473 338,472 339,472 340,473 338,475 337,475 337,476 335,478 324,478 323,477 320,477 319,478 317,478 316,477 315,478 314,478 314,486 313,487 313,544 334,544 335,543 337,543 338,544 338,545 339,546 339,547 340,548 340,549 339,550 339,551 338,552 337,551 336,551 337,551 339,553 338,554 335,554 333,552 307,552 306,553 305,552 251,552 249,554 248,554 247,553 247,552 248,551 249,551 248,551 247,552 245,550 246,549 246,546 247,545 247,544 248,543 249,543 250,544 308,544 308,413 307,413 306,414 305,414 304,413 304,412 305,411 305,408 306,407 307,407 307,406 308,405 308,403 309,402 313,402 314,403 314,406 313,407 313,418 315,420 336,420 337,421 337,423 337,420 315,420 313,418 313,407 314,406 314,402 308,402 308,405 306,407 305,407 305,411 304,412 304,413 305,414 305,442 304,443 301,443 300,442 301,441 303,441 303,415 303,440 302,441 301,441 300,440 297,440 296,439 295,439 294,438 293,438 292,437 291,437 290,436 289,436 281,428 281,427 280,426 280,425 279,424 279,423 278,422 278,421 277,420 277,415 277,420 276,421 275,420 275,415 275,420 276,421 276,423 277,424 277,425 278,426 278,427 279,428 279,429 280,430 280,431 281,432 280,433 280,434 281,434 282,433 284,435 283,436 283,437 284,438 283,439 282,439 280,437 280,436 280,437 282,439 283,439 284,438 283,437 283,436 284,435 285,436 286,436 288,438 289,438 291,440 292,440 293,441 295,441 296,442 296,443 295,444 295,445 294,446 295,446 296,447 299,447 297,447 295,445 295,444 297,442 300,442 301,443 304,443 305,442 305,415 307,413 308,414 308,543 307,544 251,544 250,543 248,543 246,545 245,544 216,544 245,544 246,545 246,547 245,548 215,548 214,547 214,545 212,543 210,543 209,544 164,544 163,543 163,465 162,464 162,461 163,460 163,456 164,455 165,455 165,417 164,416 164,415 163,414 164,413 170,413 183,426 188,426 202,412 202,410 202,412 188,426 184,426 171,413 170,413 169,412 169,411 170,410 171,410 185,424 187,424 200,411 200,410 196,414 192,410 192,411 193,411 196,414 186,424 185,424 169,408 169,407 164,407 162,405 163,404 162,403 163,402 163,401 164,400 167,400 168,401 167,402 165,402 168,402 168,401 169,400 170,401 170,402 172,402 173,403 174,402 173,401 174,400 182,400 183,401 182,402 177,402 176,403 177,402 182,402 183,403 183,404 184,405 183,404 183,403 184,402 183,401 184,400 185,400 186,401 186,402 187,403 187,405 193,405 193,404 194,403 196,405 195,406 197,404 198,405 198,406 199,407 198,406 198,405 196,403 197,402 227,402 199,402 198,401 199,400 211,400 194,400 193,399 194,398 211,398 212,397 212,389 213,388 262,388 264,390 264,406 263,407 257,407 257,408 256,409 256,410 255,411 254,411 251,408 250,408 251,408 254,411 241,424 227,410 224,410 224,412 238,426 243,426 256,413 274,413 258,413 257,412 243,426 239,426 224,411 225,410 226,410 240,424 242,424 257,409 257,408 258,407 264,407 264,390 263,389 263,388 163,388 163,402 162,403 163,404 162,405 163,406 163,407 168,407 170,409 170,410 169,411 169,412 168,413 163,413 163,416 162,417 162,418 161,419 160,419 159,420 159,450 160,451 161,451 162,452 162,454 163,455 163,460 162,461 162,464 163,465 163,544 210,544 211,543 212,543 213,544 213,545 214,546 214,547 215,548 214,549 215,548 245,548 246,549 245,550 216,550 215,551 214,551 213,552 212,551 211,551 212,551 214,553 246,553 247,554 246,555 214,555 238,555 239,556 239,557 240,558 239,559 240,560 241,560 241,559 242,558 243,559 244,559 245,560 247,560 245,560 244,559 244,558 243,557 245,555 246,555 247,554 250,554 250,553 251,552 305,552 306,553 306,618 710,618 710,616 711,615 711,613 710,612 711,611 710,610 711,609 711,604 710,603 710,599 709,598 709,555 709,598 710,599 710,603 711,604 711,609 710,610 711,611 710,612 711,613 711,615 710,616 710,617 709,618 307,618 306,617 306,604 307,603 308,604 308,616 308,615 309,614 316,614 317,613 317,605 309,605 308,604 309,603 318,603 319,604 319,606 384,606 385,607 384,608 319,608 319,614 318,615 319,616 385,616 386,615 385,614 385,605 384,606 320,606 319,605 319,604 318,603 317,603 316,602 316,553 317,552 333,552 334,553 334,554 338,554 339,555 337,557 336,556 337,557 338,557 338,556 339,555 370,555 371,554 375,554 377,552 416,552 417,553 417,554 421,554 422,555 446,555 447,556 447,557 448,558 448,559 450,559 449,559 448,558 448,557 447,556 448,555 453,555 454,554 458,554 458,553 459,552 487,552 488,553 492,553 492,551 493,550 524,550 525,551 525,553 529,553 530,552 559,552 561,554 564,554 565,555 597,555 598,554 601,554 601,553 602,552 642,552 644,554 646,554 645,554 644,553 643,553 642,552 602,552 600,554 599,554 598,553 598,552 599,551 600,551 599,551 596,548 597,547 597,546 598,545 598,544 599,543 600,543 601,544 644,544 645,543 646,543 647,544 647,545 648,546 648,547 649,548 679,548 680,549 680,550 679,551 648,551 647,550 647,549 647,550 648,551 647,552 648,553 679,553 680,554 679,555 648,555 648,557 647,558 646,557 644,559 643,558 641,560 640,559 640,558 639,558 638,559 639,558 640,559 640,560 642,560 643,559 645,559 645,558 646,557 647,558 647,559 648,558 648,556 649,555 679,555 680,556 680,557 681,557 682,558 682,559 684,559 683,559 682,558 682,556 681,557 679,555 680,554 684,554 684,553 685,552 698,552 699,553 699,555 698,556 699,557 699,602 698,603 697,603 708,603 708,602 707,603 706,602 706,557 707,556 706,555 706,553 707,552 708,553 709,552 711,554 711,557 711,554 710,553 710,551 709,550 709,399 710,398 730,398 730,393 731,392 749,392 749,390 732,390 731,389 731,375 729,375 729,388 729,376 730,375 731,376 731,389 730,390 730,397 729,398 709,398 709,550 710,551 709,552 705,552 704,553 703,552 685,552 683,554 681,554 680,553 680,549 679,548 680,547 680,545 682,543 683,543 684,544 701,544 702,543 702,401 701,400 701,399 659,399 658,398 658,395 660,393 662,393 663,394 671,394 672,393 698,393 699,392 699,390 698,389 698,387 699,386 699,375 699,383 698,384 697,383 697,375 697,383 696,384 695,383 695,375 694,374 693,374 694,374 695,375 695,381 694,382 689,382 694,382 695,383 694,384 681,384 680,383 680,382 680,383 679,384 678,384 677,383 677,347 678,346 696,346 697,347 696,348 679,348 696,348 697,349 697,350 696,351 695,350 697,352 697,358 697,346 698,345 698,344 699,343 699,340 676,340 675,341 675,343 676,344 676,345 677,346 677,384 676,385 677,386 676,387 676,388 675,389 674,388 674,345 674,388 675,389 675,391 675,389 678,386 696,386 698,388 698,389 699,390 699,392 698,393 673,393 672,392 673,391 673,390 672,389 672,340 674,338 700,338 702,340 702,343 701,344 701,360 700,361 701,361 701,344 702,343 702,340 701,339 701,338 702,337 702,336 701,335 672,335 671,334 672,333 701,333 702,332 702,298 701,297 701,296 691,296 691,297 689,299 687,299 686,298 682,298 681,297 681,296 671,296 671,297 670,298 670,299 669,300 643,300 668,300 669,301 669,324 668,325 664,325 663,324 660,324 659,323 658,323 657,322 656,322 654,320 655,319 655,318 655,319 654,320 653,320 647,314 647,313 646,312 646,311 644,309 644,306 643,305 643,302 643,306 642,307 641,306 641,299 642,298 668,298 668,296 601,296 601,297 600,298 600,301 601,302 601,323 600,324 600,326 601,327 601,328 622,328 623,329 623,332 622,333 615,333 614,332 612,332 611,333 601,333 601,339 600,340 600,346 601,347 601,355 600,356 600,362 601,363 601,372 600,373 600,378 601,379 601,393 602,393 603,394 621,394 622,393 622,383 621,382 622,381 622,346 621,345 621,344 622,343 622,335 622,343 621,344 621,345 622,346 622,381 621,382 622,383 622,392 620,394 603,394 601,392 601,385 602,384 603,385 603,387 606,390 606,391 606,390 605,389 605,388 606,387 608,389 608,390 609,391 615,391 617,389 618,390 618,391 619,390 619,389 618,388 618,386 619,385 619,381 620,380 620,378 620,380 619,381 618,380 618,378 615,375 610,375 609,376 608,376 608,377 606,379 605,378 605,377 606,376 606,375 607,374 608,374 609,373 616,373 619,376 616,373 609,373 608,374 607,374 606,375 606,376 604,378 604,379 603,380 603,382 606,382 607,383 606,384 604,384 603,385 601,383 601,379 600,378 600,373 601,372 601,363 600,362 600,356 601,355 601,347 600,346 600,340 601,339 601,334 602,333 611,333 612,332 614,332 615,333 623,333 624,334 624,393 625,394 626,393 628,393 630,395 630,397 628,399 580,399 578,397 578,395 580,393 583,393 584,394 585,393 586,394 595,394 595,329 586,329 585,330 584,329 583,330 582,329 547,329 546,330 545,329 544,330 543,329 536,329 535,330 534,330 534,393 535,393 536,394 543,394 544,393 548,393 549,394 549,396 550,397 550,398 549,399 534,399 534,401 535,402 534,403 534,404 533,405 532,404 529,404 528,403 528,400 529,399 529,355 524,355 523,356 522,355 522,352 521,351 523,349 526,349 527,350 529,348 529,292 528,291 528,289 530,287 533,287 535,289 535,291 539,291 540,290 543,290 544,291 543,292 543,295 541,297 539,297 538,296 534,296 534,324 593,324 593,296 591,296 590,297 588,297 587,296 587,293 586,292 588,290 590,290 591,291 630,291 631,292 632,292 633,291 701,291 701,286 702,285 703,286 707,286 707,285 709,283 709,255 709,283 708,284 707,283 707,255 706,256 703,256 704,256 705,257 705,278 704,279 703,279 702,280 700,280 699,279 697,279 697,280 696,281 696,282 697,281 697,280 698,279 699,280 699,281 700,280 702,280 703,281 705,281 703,281 702,280 703,279 704,279 705,278 705,257 706,256 707,257 707,282 706,283 707,283 708,284 706,286 704,286 702,284 702,285 700,287 670,287 668,285 668,280 669,279 670,280 670,284 700,284 671,284 670,283 670,280 671,279 671,276 672,275 672,273 674,271 674,270 677,267 677,266 681,262 682,262 686,258 687,258 688,257 689,257 690,256 691,256 692,255 694,255 695,254 700,254 701,253 709,253 709,139 710,138 712,138 713,139 713,171 721,171 722,170 724,170 725,169 727,169 728,168 730,168 732,166 733,166 735,164 736,164 737,165 736,166 737,166 737,165 736,164 738,162 738,161 742,157 743,158 742,157 742,156 743,155 743,154 745,152 745,150 746,149 747,150 746,149 746,146 747,145 747,141 748,140 747,141 747,145 746,146 745,145 745,140 747,138 943,138 944,139 944,243 943,244 943,246 945,248 944,249 944,279 945,280 943,282 943,284 944,285 944,389 943,390 931,390 944,390 944,284 943,283 943,282 945,280 947,280 948,279 948,248 949,247 950,248 950,279 952,281 951,282 951,283 952,284 952,396 950,398 929,398 928,397 928,392 929,391 929,390 928,389 928,375 928,389 927,390 906,390 906,392 927,392 928,393 928,396 927,397 842,397 841,396 841,393 842,392 848,392 848,390 842,390 841,389 841,375 841,389 840,390 840,391 841,392 841,397 840,398 819,398 818,397 818,391 819,390 838,390 819,390 817,388 817,376 817,388 818,389 817,390 806,390 805,389 806,390 806,392 817,392 818,393 818,398 817,399 732,399 818,399 819,398 841,398 842,399 927,399 928,398 951,398 952,397 952,285 953,284 954,284 954,281 955,280 955,248 956,247 957,248 957,246 958,245 959,245 959,241 959,244 958,245 956,243 957,242 956,243 957,244 957,246 955,248 954,247 954,244 952,242 952,130 752,130 751,129" stroke="rgb(0%,0%,0%)" /><polygon fill="none" points="265,128 264,129 262,129 261,130 155,130 155,223 153,225 153,228 152,229 152,263 153,264 153,265 155,267 155,318 153,320 153,322 152,323 152,347 153,348 153,349 155,351 155,414 154,415 153,415 153,418 152,419 152,453 153,454 153,455 155,457 155,552 208,552 210,554 212,554 211,554 210,553 209,553 208,552 156,552 155,551 155,456 154,455 155,454 155,452 157,450 157,420 155,418 155,416 154,415 155,414 155,350 154,349 155,348 155,346 156,345 157,345 158,346 159,345 161,345 162,346 162,348 162,347 163,346 162,345 160,345 159,344 159,326 160,325 161,325 162,324 163,325 163,343 163,324 162,323 162,322 163,321 164,321 165,322 165,348 163,350 163,353 162,354 163,355 163,357 162,358 162,379 163,380 162,381 163,382 163,383 217,383 217,354 217,382 216,383 164,383 162,381 163,380 162,379 162,358 164,356 165,356 166,355 166,354 167,353 188,353 189,354 189,355 188,356 176,356 188,356 189,355 189,354 190,353 191,354 191,356 198,356 192,356 191,355 191,354 192,353 211,353 212,354 211,355 213,353 215,353 216,352 221,352 222,353 222,361 223,362 222,363 222,381 223,382 223,383 264,383 264,359 263,358 263,356 264,355 265,356 269,356 270,357 270,360 269,361 269,407 274,407 276,409 276,413 276,408 275,407 270,407 269,406 269,361 270,360 270,356 266,356 265,355 239,355 239,357 238,358 237,358 236,357 237,356 234,356 232,358 225,358 232,358 233,357 234,357 235,356 236,357 236,358 238,358 239,357 262,357 264,359 264,382 263,383 224,383 222,381 222,363 223,362 262,362 223,362 222,361 223,360 262,360 261,360 260,359 259,360 258,359 257,360 256,359 255,360 223,360 222,359 222,352 216,352 215,353 213,353 212,354 211,353 167,353 166,354 165,353 164,353 163,352 163,351 165,349 165,322 164,321 165,320 164,320 163,319 163,304 162,303 164,301 171,301 172,302 172,303 170,305 169,304 167,306 168,306 168,305 169,304 171,306 171,307 170,308 169,308 166,311 166,318 168,320 168,321 168,319 167,319 166,318 166,311 167,310 168,311 168,312 170,312 170,310 170,311 169,312 167,310 169,308 170,308 171,307 171,304 172,303 173,304 173,307 175,309 189,309 190,308 191,308 191,303 191,307 189,309 175,309 173,307 173,304 174,303 173,304 172,303 172,302 173,301 192,301 193,302 193,308 194,308 195,307 197,309 197,308 196,308 195,307 195,306 194,306 193,305 194,304 196,304 194,304 193,303 193,302 194,301 202,301 203,302 203,324 262,324 265,327 269,327 270,326 270,323 269,322 269,276 270,275 275,275 276,274 276,269 277,268 278,269 279,268 280,269 280,270 279,271 278,271 279,272 279,274 278,275 279,274 280,275 280,276 278,278 277,277 278,278 277,279 272,279 272,281 272,280 273,279 278,279 278,278 279,277 280,277 280,275 279,274 279,271 280,270 280,269 279,268 279,266 278,267 277,266 277,264 278,263 278,260 279,259 279,258 280,257 280,256 282,254 283,255 288,255 288,251 286,249 288,247 289,247 291,245 292,245 293,244 294,244 295,243 298,243 299,242 302,242 303,243 303,268 304,269 304,271 305,272 305,275 307,275 308,276 308,359 307,360 307,362 307,360 308,359 309,360 309,363 309,360 311,358 312,359 312,364 314,364 314,356 315,355 396,355 397,356 398,355 401,355 402,356 407,356 402,356 401,355 401,352 402,351 407,351 407,349 408,348 409,349 409,351 410,351 411,352 412,351 414,351 415,352 416,351 426,351 426,348 425,349 424,348 424,347 424,348 423,349 415,349 414,348 413,349 412,348 412,347 411,346 412,347 412,348 411,349 409,349 407,347 407,346 406,347 405,347 404,346 405,347 407,347 408,348 407,349 397,349 396,350 392,350 391,349 391,328 390,327 385,327 384,328 375,328 374,327 370,327 369,328 359,328 358,327 342,327 341,326 340,327 339,327 338,326 337,326 336,325 336,303 336,325 337,326 338,326 339,327 340,327 341,326 342,327 358,327 359,328 358,329 336,329 334,327 334,304 326,304 325,303 325,301 326,300 328,300 329,301 337,301 338,300 338,275 339,274 340,275 340,272 339,271 340,272 340,273 338,275 337,274 337,273 336,272 336,251 338,249 358,249 359,250 368,250 369,249 379,249 380,250 401,250 402,249 415,249 416,248 417,249 418,249 419,250 420,249 437,249 438,250 437,251 435,251 436,252 437,251 440,251 439,251 438,250 439,249 446,249 447,250 447,253 448,254 450,254 451,255 452,255 451,255 450,254 448,254 447,253 447,250 449,248 449,247 450,246 450,240 451,239 452,240 452,242 452,241 453,240 452,239 451,239 450,238 450,235 451,234 452,234 453,235 453,237 453,235 454,234 455,234 456,235 456,236 456,233 455,234 454,234 453,235 452,234 451,234 450,233 450,231 451,230 453,232 454,231 455,231 454,231 453,232 452,231 452,230 453,229 452,230 451,230 450,229 450,228 451,227 454,227 454,225 455,224 465,224 466,225 466,226 468,226 467,226 466,225 467,224 469,224 470,225 504,225 504,224 506,222 506,221 507,220 516,220 517,221 517,224 517,223 518,222 517,221 518,220 489,220 486,223 470,223 469,224 455,224 454,223 454,219 455,218 518,218 383,218 382,217 382,216 342,216 341,215 339,215 341,215 342,216 342,217 341,218 317,218 316,217 316,130 305,130 303,128" stroke="rgb(0%,0%,0%)" /></svg>